<svg xmlns="http://www.w3.org/2000/svg" viewBox="0 0 96.9 96.9"><defs><style>.a{fill:#008ece;}.b{fill:#fff;}</style></defs><title>icons</title><circle class="a" cx="48.45" cy="48.45" r="48.45"/><path class="b" d="M34.71,53.83c0-9.39,6.76-17,15.1-17s15.1,7.61,15.1,17a19,19,0,0,1-.51,4.38,17,17,0,1,0-29.19,0A19,19,0,0,1,34.71,53.83Z"/><path class="b" d="M64.41,59a0.8,0.8,0,0,1-.78-1,18.26,18.26,0,0,0,.49-4.2c0-8.93-6.42-16.2-14.3-16.2s-14.3,7.27-14.3,16.2A18.26,18.26,0,0,0,36,58a0.8,0.8,0,0,1-1.47.6,17.81,17.81,0,1,1,30.57,0A0.8,0.8,0,0,1,64.41,59ZM49.82,36c8.43,0,15.36,7.39,15.88,16.68a16.2,16.2,0,1,0-31.75,0C34.46,43.41,41.38,36,49.82,36Z"/><ellipse class="b" cx="49.82" cy="50.14" rx="13.82" ry="15.76"/><circle class="b" cx="49.82" cy="24.16" r="6.89"/><path class="b" d="M58.88,60.4c0,1.88-1.52,15.34-3.4,15.34s-3.4-13.46-3.4-15.34A3.4,3.4,0,0,1,58.88,60.4Z"/><path class="b" d="M55.48,76.55c-0.92,0-2-.59-3.2-7.63a75.68,75.68,0,0,1-1-8.51,4.2,4.2,0,0,1,8.41,0,75.69,75.69,0,0,1-1,8.51C57.48,76,56.4,76.55,55.48,76.55Zm0-18.74a2.6,2.6,0,0,0-2.59,2.59c0,2.32,1.38,12.57,2.59,14.37C56.7,73,58.08,62.72,58.08,60.4A2.6,2.6,0,0,0,55.48,57.81Z"/><path class="b" d="M47.55,60.4c0,1.88-1.52,15.34-3.4,15.34s-3.4-13.46-3.4-15.34A3.4,3.4,0,0,1,47.55,60.4Z"/><path class="b" d="M44.15,76.55c-0.92,0-2-.59-3.2-7.63a75.69,75.69,0,0,1-1-8.51,4.2,4.2,0,0,1,8.41,0,75.68,75.68,0,0,1-1,8.51C46.15,76,45.07,76.55,44.15,76.55Zm0-18.74a2.6,2.6,0,0,0-2.59,2.59c0,2.32,1.38,12.57,2.59,14.37,1.22-1.8,2.59-12.06,2.59-14.37A2.6,2.6,0,0,0,44.15,57.81Z"/></svg>