<svg xmlns="http://www.w3.org/2000/svg" viewBox="0 0 96.9 96.9"><defs><style>.a{fill:#ffcb50;}.b{fill:#fff;}</style></defs><title>icons</title><circle class="a" cx="48.45" cy="48.45" r="48.45"/><path class="b" d="M47.07,27A26.74,26.74,0,0,0,20.32,53.76H73.81A26.74,26.74,0,0,0,47.07,27Z"/><path class="b" d="M68.37,39.15c-7.1,0-12.86,6.54-12.86,14.6H81.23C81.23,45.69,75.47,39.15,68.37,39.15Z"/><path class="a" d="M47.07,33.7A20.06,20.06,0,0,0,27,53.76H67.12A20.06,20.06,0,0,0,47.07,33.7Z"/><rect class="b" x="40.64" y="30.02" width="4.47" height="21.73"/><rect class="b" x="41.01" y="24.41" width="12.12" height="46.46" transform="translate(94.71 0.57) rotate(90)"/><circle class="b" cx="32.24" cy="54.43" r="6.73"/><path class="b" d="M32.24,61.89a7.46,7.46,0,1,1,7.46-7.46A7.47,7.47,0,0,1,32.24,61.89Zm0-13.47a6,6,0,1,0,6,6A6,6,0,0,0,32.24,48.42Z"/><circle class="b" cx="67.24" cy="54.43" r="6.73"/><path class="b" d="M67.24,61.89a7.46,7.46,0,1,1,7.46-7.46A7.47,7.47,0,0,1,67.24,61.89Zm0-13.47a6,6,0,1,0,6,6A6,6,0,0,0,67.24,48.42Z"/><polygon class="b" points="27.01 74.15 27.74 66.86 33.57 65.89 37.22 61.03 35.51 67.83 29.44 68.81 27.01 74.15"/><polygon class="b" points="55.35 78.57 54.52 70.06 60.98 67.62 64.04 61.23 63.64 69.4 56.91 71.9 55.35 78.57"/><polygon class="b" points="44.08 74.14 40.53 69.8 43.16 66.13 42.5 61.53 45.26 66.13 42.5 69.93 44.08 74.14"/><polygon class="b" points="82.69 65.06 78.22 64.43 77.76 60.82 74.85 58.46 79 59.67 79.46 63.43 82.69 65.06"/></svg>