<?xml version="1.0" encoding="utf-8"?>
<!-- Generator: Adobe Illustrator 17.0.0, SVG Export Plug-In . SVG Version: 6.00 Build 0)  -->
<!DOCTYPE svg PUBLIC "-//W3C//DTD SVG 1.1//EN" "http://www.w3.org/Graphics/SVG/1.1/DTD/svg11.dtd">
<svg version="1.1" id="Layer_1" xmlns="http://www.w3.org/2000/svg" xmlns:xlink="http://www.w3.org/1999/xlink" x="0px" y="0px"
	 width="612px" height="792px" viewBox="0 0 612 792" enable-background="new 0 0 612 792" xml:space="preserve">
<title>icons</title>
<circle fill="#8D519F" cx="306" cy="396" r="306"/>
<g>
	<path fill="#FFFFFF" d="M242.525,431.168c-2.665,0.882-4.884,3.405-7.052,5.455c-25.572,24.188-64.28,22.025-86.576-4.888
		c-21.502-25.954-16.053-64.803,11.903-84.874c23.028-16.532,54.03-13.462,75.73,7.501c6.118,5.91,11.808,6.585,16.474,1.953
		c4.4-4.368,4.076-10.095-0.876-15.461c-26.192-28.383-70.352-33.286-102.4-11.368c-32.297,22.088-43.841,64.579-26.757,99.385
		c12.341,25.142,32.906,39.503,60.419,44.554c0,11.271,0,22.324,0,34.127c-3.821,0-7.249-0.014-10.677,0.004
		c-3.724,0.02-7.464-0.14-11.168,0.15c-8.673,0.68-13.491,9.734-8.005,15.924c2.41,2.72,7.125,4.178,10.985,4.653
		c6.123,0.754,12.407,0.201,19.286,0.201c0,7.011-0.219,13.251,0.058,19.469c0.317,7.144,4.644,11.553,10.633,11.418
		c5.966-0.134,9.949-4.75,10.035-11.807c0.075-6.198,0.016-12.397,0.016-19.071c4.117,0,7.342,0.007,10.567-0.002
		c3.491-0.01,7.005,0.208,10.469-0.105c7.78-0.704,11.784-4.791,11.404-11.249c-0.367-6.231-4.29-9.413-12.114-9.551
		c-6.652-0.118-13.307-0.024-20.045-0.024c0-11.956,0-22.839,0-34.215c19.22-3.055,34.978-11.229,47.738-25.1
		c3.529-3.837,4.789-7.921,1.995-12.638C251.785,430.91,247.303,429.586,242.525,431.168z"/>
	<path fill="#FFFFFF" d="M320.297,362.423c-8.359-0.158-16.724-0.038-25.086-0.036c-8.362,0.002-16.727-0.133-25.086,0.045
		c-6.58,0.14-10.88,4.278-10.996,10.091c-0.124,6.162,4.221,10.504,11.226,10.564c16.723,0.144,33.449,0.149,50.172-0.006
		c6.566-0.061,10.986-4.362,11.123-10.106C331.791,367.045,327.137,362.553,320.297,362.423z"/>
	<path fill="#FFFFFF" d="M320.725,403.233c-16.941-0.317-33.897-0.33-50.837,0.006c-7.008,0.139-11.18,5.032-10.753,11.062
		c0.409,5.785,4.722,9.436,11.488,9.503c8.125,0.082,16.251,0.019,24.377,0.019c8.358,0,16.717,0.064,25.074-0.02
		c6.725-0.068,11.112-3.768,11.552-9.511C332.059,408.641,327.435,403.358,320.725,403.233z"/>
	<path fill="#FFFFFF" d="M501.725,318.517c-2.131-13.332-4.363-26.654-6.879-39.918c-1.677-8.841-8.355-14.2-16.968-13.001
		c-14.057,1.957-28.056,4.432-41.984,7.172c-6.676,1.313-9.805,8.067-7.124,13.986c2.356,5.2,6.667,6.776,12.061,5.899
		c6.22-1.012,12.431-2.075,19.889-3.325c-9.463,13.382-18.702,26.475-27.262,38.582c-11.558-6.779-24.996-10.685-39.337-10.685
		c-21.361,0-41.297,8.466-56.135,23.839c-4.087,4.234-3.967,10.98,0.267,15.067c4.235,4.087,10.98,3.968,15.067-0.267
		c10.785-11.174,25.276-17.328,40.802-17.328c31.266,0,56.702,25.436,56.702,56.702s-25.436,56.702-56.702,56.702
		c-14.776,0-28.764-5.651-39.389-15.914c-4.233-4.089-10.979-3.972-15.067,0.261c-4.088,4.233-3.971,10.979,0.261,15.067
		c14.619,14.12,33.866,21.896,54.194,21.896c43.016,0,78.013-34.996,78.013-78.013c0-21.076-8.415-40.213-22.043-54.265
		c8.875-12.551,18.41-26.065,28.264-39.999c1.284,7.967,2.153,14.307,3.36,20.582c1.309,6.808,5.654,10.108,11.653,9.254
		C499.083,329.997,502.75,324.929,501.725,318.517z"/>
</g>
</svg>
