<svg xmlns="http://www.w3.org/2000/svg" xmlns:xlink="http://www.w3.org/1999/xlink" viewBox="0 0 96.9 96.9"><defs><style>.a{fill:none;}.b{fill:#91c73e;}.c{clip-path:url(#a);}.d{fill:#fff;}.e{clip-path:url(#b);}.f{clip-path:url(#c);}</style><clipPath id="a"><polygon class="a" points="14.67 29.16 15.58 57.64 37.7 51.58 50.02 39.06 59.71 18.86 34.67 15.83 14.67 29.16"/></clipPath><clipPath id="b"><polygon class="a" points="58.7 18.81 44.36 20.93 41.43 34.97 49.92 47.59 68.1 61.53 77.08 62.34 79.51 32.54 58.7 18.81"/></clipPath><clipPath id="c"><polygon class="a" points="15.28 42.69 24.47 33.6 37.5 42.09 65.87 49.76 79.1 50.77 66.58 79.96 36.38 78.34 15.28 42.69"/></clipPath></defs><title>icons</title><circle class="b" cx="48.45" cy="48.45" r="48.45"/><g class="c"><path class="d" d="M71.33,55.76a24.84,24.84,0,0,0-37.25-29.1l2.35,6.15a18.49,18.49,0,1,1-5.83,8.1q0.12-.34.26-0.67l4.29,1.56a1.07,1.07,0,0,0,1.37-1.4l-4.32-11a1.07,1.07,0,0,0-1.51-.55L20.3,34.5a1.07,1.07,0,0,0,.14,1.95l4.45,1.62c-0.09.22-.17,0.44-0.26,0.67A24.85,24.85,0,0,0,71.33,55.76Z"/></g><g class="e"><path class="d" d="M27.21,60.72a24.84,24.84,0,0,0,45.69-12.1l-6.32-1.85a18.49,18.49,0,1,1-2.94-9.54L64,37.84l-3.84,2.47a1.07,1.07,0,0,0,.29,1.93l11.37,3.2a1.07,1.07,0,0,0,1.35-.87L75,32.9a1.07,1.07,0,0,0-1.64-1.06l-4,2.56L69,33.79A24.85,24.85,0,0,0,27.21,60.72Z"/></g><g class="f"><path class="d" d="M48,22.54a24.84,24.84,0,0,0-14.58,45l5-4.31A18.49,18.49,0,1,1,48,65.89H47.33V61.31a1.07,1.07,0,0,0-1.78-.8l-8.86,7.83a1.07,1.07,0,0,0,0,1.61l8.86,7.83a1.07,1.07,0,0,0,1.78-.8V72.23H48A24.85,24.85,0,1,0,48,22.54Z"/></g></svg>