<?xml version="1.0" encoding="utf-8"?>
<!-- Generator: Adobe Illustrator 17.0.0, SVG Export Plug-In . SVG Version: 6.00 Build 0)  -->
<!DOCTYPE svg PUBLIC "-//W3C//DTD SVG 1.1//EN" "http://www.w3.org/Graphics/SVG/1.1/DTD/svg11.dtd">
<svg version="1.1" id="Grid" xmlns="http://www.w3.org/2000/svg" xmlns:xlink="http://www.w3.org/1999/xlink" x="0px" y="0px"
	 width="244px" height="64px" viewBox="0 0 244 64" enable-background="new 0 0 244 64" xml:space="preserve">
<g>
	<circle fill="#91C73E" cx="211.948" cy="32.054" r="30.946"/>
	<rect x="6.668" y="29.308" fill="#91C73E" width="176.77" height="7.542"/>
	<g>
		<g>
			<defs>
				<polygon id="SVGID_31_" points="190.373,19.733 190.953,37.925 205.081,34.054 212.951,26.055 219.143,13.154 203.145,11.218 
									"/>
			</defs>
			<clipPath id="SVGID_2_">
				<use xlink:href="#SVGID_31_"  overflow="visible"/>
			</clipPath>
			<g clip-path="url(#SVGID_2_)">
				<path fill="#FFFFFF" d="M226.565,36.722c2.998-8.223-1.253-17.353-9.477-20.351c-4.957-1.807-10.243-0.98-14.316,1.763
					l1.5,3.929c3.116-2.486,7.415-3.342,11.426-1.88c6.121,2.232,9.286,9.027,7.054,15.148c-2.232,6.121-9.027,9.285-15.148,7.054
					c-6.121-2.232-9.285-9.027-7.054-15.148c0.052-0.144,0.107-0.285,0.164-0.426l2.739,0.998c0.253,0.092,0.536,0.028,0.725-0.165
					c0.187-0.192,0.245-0.478,0.147-0.728l-2.759-7.026c-0.072-0.183-0.218-0.326-0.403-0.393c-0.184-0.067-0.388-0.052-0.56,0.042
					l-6.634,3.602c-0.15,0.081-0.261,0.213-0.316,0.367c-0.032,0.089-0.047,0.186-0.039,0.285c0.02,0.268,0.195,0.5,0.448,0.592
					l2.839,1.035c-0.056,0.141-0.111,0.282-0.164,0.426c-2.998,8.224,1.253,17.353,9.477,20.351
					C214.437,49.197,223.567,44.946,226.565,36.722z"/>
			</g>
		</g>
		<g>
			<defs>
				<polygon id="SVGID_33_" points="218.498,13.121 209.338,14.476 207.467,23.443 212.886,31.506 224.497,40.408 230.239,40.924 
					231.787,21.894 				"/>
			</defs>
			<clipPath id="SVGID_4_">
				<use xlink:href="#SVGID_33_"  overflow="visible"/>
			</clipPath>
			<g clip-path="url(#SVGID_4_)">
				<path fill="#FFFFFF" d="M198.382,39.891c4.742,7.357,14.585,9.485,21.943,4.744c4.435-2.858,6.969-7.57,7.245-12.473
					l-4.037-1.179c0.098,3.985-1.817,7.928-5.406,10.241c-5.476,3.529-12.803,1.946-16.332-3.531
					c-3.529-5.476-1.946-12.803,3.531-16.332c5.476-3.53,12.803-1.946,16.332,3.531c0.083,0.128,0.163,0.258,0.24,0.388l-2.45,1.579
					c-0.226,0.146-0.346,0.41-0.306,0.677c0.04,0.266,0.232,0.484,0.491,0.557l7.266,2.047c0.189,0.053,0.392,0.023,0.556-0.083
					c0.165-0.106,0.276-0.278,0.305-0.472l1.137-7.462c0.026-0.168-0.013-0.336-0.101-0.474c-0.051-0.08-0.12-0.15-0.203-0.204
					c-0.226-0.146-0.517-0.147-0.742-0.001l-2.54,1.637c-0.079-0.13-0.158-0.26-0.241-0.388c-4.742-7.357-14.585-9.485-21.943-4.743
					C195.769,22.69,193.641,32.534,198.382,39.891z"/>
			</g>
		</g>
		<g>
			<defs>
				<polygon id="SVGID_35_" points="190.76,28.377 196.63,22.572 204.952,27.99 223.078,32.893 231.529,33.538 223.53,52.181 
					204.242,51.149 				"/>
			</defs>
			<clipPath id="SVGID_6_">
				<use xlink:href="#SVGID_35_"  overflow="visible"/>
			</clipPath>
			<g clip-path="url(#SVGID_6_)">
				<path fill="#FFFFFF" d="M211.689,15.502c-8.753,0-15.874,7.121-15.874,15.874c0,5.276,2.588,9.958,6.56,12.846l3.178-2.755
					c-3.402-2.077-5.68-5.823-5.68-10.092c0-6.515,5.301-11.815,11.815-11.815c6.515,0,11.816,5.3,11.816,11.815
					c0,6.515-5.301,11.816-11.816,11.816c-0.153,0-0.305-0.003-0.456-0.009v-2.915c0-0.269-0.158-0.513-0.403-0.624
					c-0.245-0.111-0.533-0.067-0.734,0.111l-5.657,4.998c-0.147,0.13-0.231,0.317-0.231,0.513s0.084,0.383,0.231,0.513l5.657,4.998
					c0.127,0.113,0.289,0.172,0.453,0.172c0.095,0,0.192-0.02,0.281-0.06c0.245-0.111,0.403-0.355,0.403-0.624v-3.022
					c0.152,0.005,0.303,0.008,0.456,0.008c8.753,0,15.874-7.121,15.874-15.874C227.564,22.623,220.443,15.502,211.689,15.502z"/>
			</g>
		</g>
	</g>
	<circle fill="#91C73E" cx="6.668" cy="33.079" r="5.668"/>
</g>
</svg>
