<?xml version="1.0" encoding="utf-8"?>
<!-- Generator: Adobe Illustrator 17.0.0, SVG Export Plug-In . SVG Version: 6.00 Build 0)  -->
<!DOCTYPE svg PUBLIC "-//W3C//DTD SVG 1.1//EN" "http://www.w3.org/Graphics/SVG/1.1/DTD/svg11.dtd">
<svg version="1.1" id="Grid" xmlns="http://www.w3.org/2000/svg" xmlns:xlink="http://www.w3.org/1999/xlink" x="0px" y="0px"
	 width="244px" height="64px" viewBox="0 0 244 64" enable-background="new 0 0 244 64" xml:space="preserve">
<g>
	<circle fill="#008ECE" cx="211.948" cy="31.853" r="30.946"/>
	<g>
		<g>
			<path fill="#FFFFFF" d="M203.175,35.289c0-5.998,4.319-10.86,9.648-10.86c5.328,0,9.648,4.862,9.648,10.86
				c0,0.969-0.114,1.907-0.326,2.8c0.976-1.629,1.539-3.535,1.539-5.573c0-5.999-4.863-10.861-10.861-10.861
				s-10.861,4.862-10.861,10.861c0,2.037,0.562,3.943,1.539,5.573C203.288,37.196,203.175,36.258,203.175,35.289z"/>
			<path fill="#FFFFFF" d="M222.145,38.603c-0.065,0-0.13-0.012-0.193-0.038c-0.235-0.095-0.365-0.348-0.307-0.595
				c0.207-0.874,0.312-1.776,0.312-2.681c0-5.706-4.098-10.347-9.134-10.347c-5.036,0-9.134,4.641-9.134,10.347
				c0,0.905,0.105,1.808,0.312,2.681c0.058,0.247-0.072,0.499-0.307,0.595c-0.233,0.095-0.504,0.005-0.634-0.212
				c-1.054-1.76-1.611-3.778-1.611-5.837c0-6.272,5.102-11.375,11.375-11.375s11.375,5.103,11.375,11.375
				c0,2.059-0.557,4.077-1.612,5.837C222.49,38.512,222.321,38.603,222.145,38.603z M212.822,23.915
				c5.387,0,9.809,4.718,10.141,10.657c0.136-0.673,0.206-1.362,0.206-2.055c0-5.706-4.641-10.347-10.347-10.347
				c-5.706,0-10.347,4.641-10.347,10.347c0,0.693,0.07,1.382,0.206,2.055C203.013,28.633,207.435,23.915,212.822,23.915z"/>
		</g>
		<g>
			<ellipse fill="#FFFFFF" cx="212.822" cy="32.935" rx="8.829" ry="10.064"/>
		</g>
		<g>
			<circle fill="#FFFFFF" cx="212.822" cy="16.337" r="4.401"/>
		</g>
		<g>
			<g>
				<path fill="#FFFFFF" d="M218.612,39.49c0,1.199-0.972,9.796-2.171,9.796s-2.171-8.597-2.171-9.796
					c0-1.199,0.972-2.171,2.171-2.171S218.612,38.291,218.612,39.49z"/>
				<path fill="#FFFFFF" d="M216.441,49.8c-0.585,0-1.273-0.377-2.042-4.876c-0.387-2.263-0.643-4.769-0.643-5.434
					c0-1.481,1.204-2.685,2.685-2.685c1.481,0,2.685,1.204,2.685,2.685c0,0.665-0.256,3.171-0.643,5.434
					C217.713,49.423,217.025,49.8,216.441,49.8z M216.441,37.833c-0.914,0-1.657,0.744-1.657,1.657c0,1.481,0.878,8.031,1.657,9.182
					c0.779-1.151,1.657-7.7,1.657-9.182C218.098,38.576,217.354,37.833,216.441,37.833z"/>
			</g>
			<g>
				<path fill="#FFFFFF" d="M211.375,39.49c0,1.199-0.972,9.796-2.171,9.796s-2.171-8.597-2.171-9.796
					c0-1.199,0.972-2.171,2.171-2.171S211.375,38.291,211.375,39.49z"/>
				<path fill="#FFFFFF" d="M209.204,49.8c-0.585,0-1.273-0.377-2.041-4.876c-0.387-2.263-0.643-4.769-0.643-5.434
					c0-1.481,1.204-2.685,2.685-2.685c1.481,0,2.685,1.204,2.685,2.685c0,0.665-0.256,3.171-0.643,5.434
					C210.477,49.423,209.788,49.8,209.204,49.8z M209.204,37.833c-0.914,0-1.657,0.744-1.657,1.657c0,1.481,0.879,8.031,1.657,9.182
					c0.779-1.151,1.657-7.7,1.657-9.182C210.861,38.576,210.117,37.833,209.204,37.833z"/>
			</g>
		</g>
	</g>
	<rect x="6.668" y="29.107" fill="#008ECE" width="176.77" height="7.542"/>
	<circle fill="#008ECE" cx="6.668" cy="32.935" r="5.668"/>
</g>
</svg>
