<?xml version="1.0" encoding="utf-8"?>
<!-- Generator: Adobe Illustrator 17.0.0, SVG Export Plug-In . SVG Version: 6.00 Build 0)  -->
<!DOCTYPE svg PUBLIC "-//W3C//DTD SVG 1.1//EN" "http://www.w3.org/Graphics/SVG/1.1/DTD/svg11.dtd">
<svg version="1.1" id="Capa_1" xmlns="http://www.w3.org/2000/svg" xmlns:xlink="http://www.w3.org/1999/xlink" x="0px" y="0px"
	 width="515px" height="115px" viewBox="0 0 515 115" enable-background="new 0 0 515 115" xml:space="preserve">
<circle fill="#008ECE" cx="458.045" cy="57.114" r="56.215"/>
<g>
	<g>
		<path fill="#FFFFFF" d="M442.108,63.355c0-10.896,7.846-19.728,17.525-19.728s17.525,8.832,17.525,19.728
			c0,1.76-0.207,3.463-0.592,5.086c1.774-2.959,2.795-6.422,2.795-10.123c0-10.897-8.833-19.729-19.729-19.729
			s-19.729,8.832-19.729,19.729c0,3.701,1.022,7.163,2.795,10.123C442.315,66.818,442.108,65.115,442.108,63.355z"/>
		<path fill="#FFFFFF" d="M476.568,69.375c-0.118,0-0.237-0.022-0.351-0.068c-0.426-0.173-0.663-0.632-0.558-1.08
			c0.375-1.587,0.566-3.226,0.566-4.871c0-10.364-7.443-18.796-16.592-18.796s-16.592,8.431-16.592,18.796
			c0,1.644,0.19,3.284,0.566,4.871c0.106,0.448-0.131,0.907-0.558,1.08c-0.424,0.173-0.915,0.009-1.152-0.386
			c-1.914-3.197-2.926-6.864-2.926-10.602c0-11.393,9.269-20.662,20.662-20.662s20.662,9.269,20.662,20.662
			c0,3.739-1.013,7.406-2.927,10.602C477.196,69.21,476.888,69.375,476.568,69.375z M459.633,42.694
			c9.787,0,17.819,8.57,18.422,19.358c0.248-1.223,0.374-2.474,0.374-3.733c0-10.364-8.431-18.796-18.796-18.796
			s-18.796,8.431-18.796,18.796c0,1.26,0.127,2.51,0.374,3.732C441.815,51.263,449.847,42.694,459.633,42.694z"/>
	</g>
	<g>
		<ellipse fill="#FFFFFF" cx="459.633" cy="59.079" rx="16.039" ry="18.282"/>
	</g>
	<g>
		<circle fill="#FFFFFF" cx="459.633" cy="28.929" r="7.995"/>
	</g>
	<g>
		<g>
			<path fill="#FFFFFF" d="M470.15,70.986c0,2.178-1.765,17.795-3.944,17.795s-3.945-15.617-3.945-17.795s1.766-3.944,3.945-3.944
				S470.15,68.808,470.15,70.986z"/>
			<path fill="#FFFFFF" d="M466.206,89.714c-1.062,0-2.312-0.684-3.709-8.857c-0.703-4.11-1.168-8.664-1.168-9.871
				c0-2.689,2.187-4.877,4.877-4.877c2.689,0,4.877,2.187,4.877,4.877c0,1.208-0.466,5.761-1.168,9.871
				C468.518,89.03,467.268,89.714,466.206,89.714z M466.206,67.976c-1.66,0-3.01,1.351-3.01,3.01c0,2.69,1.596,14.588,3.01,16.679
				c1.414-2.091,3.01-13.988,3.01-16.679C469.217,69.326,467.866,67.976,466.206,67.976z"/>
		</g>
		<g>
			<path fill="#FFFFFF" d="M457.004,70.986c0,2.178-1.765,17.795-3.944,17.795s-3.944-15.617-3.944-17.795s1.765-3.944,3.944-3.944
				S457.004,68.808,457.004,70.986z"/>
			<path fill="#FFFFFF" d="M453.06,89.714c-1.062,0-2.312-0.684-3.708-8.857c-0.703-4.11-1.168-8.664-1.168-9.871
				c0-2.689,2.187-4.877,4.877-4.877c2.69,0,4.877,2.187,4.877,4.877c0,1.208-0.466,5.761-1.168,9.871
				C455.372,89.03,454.122,89.714,453.06,89.714z M453.06,67.976c-1.66,0-3.01,1.351-3.01,3.01c0,2.69,1.596,14.588,3.01,16.679
				c1.415-2.091,3.01-13.988,3.01-16.679C456.071,69.326,454.72,67.976,453.06,67.976z"/>
		</g>
	</g>
</g>
<rect x="0.594" y="51.228" fill="#008ECE" width="411.467" height="8.645"/>
</svg>
