<svg xmlns="http://www.w3.org/2000/svg" viewBox="0 0 96.9 96.9"><defs><style>.a{fill:#8d519f;}.b{fill:#fff;}</style></defs><title>icons</title><circle class="a" cx="48.45" cy="48.45" r="48.45"/><path class="b" d="M50,73.49A20.52,20.52,0,1,1,70.56,53,20.55,20.55,0,0,1,50,73.49ZM50,36A17,17,0,1,0,67,53,17,17,0,0,0,50,36Z"/><polygon class="b" points="50.04 52.82 23.77 38.14 50.04 23.45 76.3 38.14 50.04 52.82"/><path class="b" d="M50,55A2.22,2.22,0,0,1,49,54.77L22.69,40.08a2.23,2.23,0,0,1,0-3.89L49,21.51a2.23,2.23,0,0,1,2.17,0L77.39,36.19a2.23,2.23,0,0,1,0,3.89L51.12,54.77A2.23,2.23,0,0,1,50,55ZM28.34,38.14L50,50.27l21.7-12.13L50,26Z"/><path class="a" d="M46.19,35.69a0.9,0.9,0,1,0-.91-1.56l-0.06,0h0L15.3,51.44,16.2,53,46.13,35.73h0Z"/><path class="a" d="M16,53.61l-1.35-2.33L45.07,33.74h0l0.28-.16,0,0a1.38,1.38,0,0,1,1.52.63,1.35,1.35,0,0,1-.18,1.59l0,0L46.49,36l-0.07,0-0.07,0Zm-0.13-2,0.46,0.79L45.5,35.58l0,0,0.48-.22a0.46,0.46,0,0,0,.19-0.63,0.47,0.47,0,0,0-.63-0.17l-0.37.26,0,0Z"/><path class="b" d="M25.57,62.94a1.35,1.35,0,1,0,2.71,0s0-.08,0-0.12h0L28.4,41H25.69L25.57,62.83h0S25.57,62.9,25.57,62.94Z"/><polygon class="b" points="23.5 66.26 26.97 60.24 30.44 66.26 23.5 66.26"/><path class="b" d="M42.54,57.6a2.56,2.56,0,0,0,1.62-3.23L39.3,56A2.56,2.56,0,0,0,42.54,57.6Z"/><path class="b" d="M57.54,57.6a2.56,2.56,0,0,1-1.62-3.23L60.77,56A2.56,2.56,0,0,1,57.54,57.6Z"/></svg>