<?xml version="1.0" encoding="utf-8"?>
<!-- Generator: Adobe Illustrator 17.0.0, SVG Export Plug-In . SVG Version: 6.00 Build 0)  -->
<!DOCTYPE svg PUBLIC "-//W3C//DTD SVG 1.1//EN" "http://www.w3.org/Graphics/SVG/1.1/DTD/svg11.dtd">
<svg version="1.1" id="Capa_1" xmlns="http://www.w3.org/2000/svg" xmlns:xlink="http://www.w3.org/1999/xlink" x="0px" y="0px"
	 width="515px" height="115px" viewBox="0 0 515 115" enable-background="new 0 0 515 115" xml:space="preserve">
<circle fill="#FFCB50" cx="458.356" cy="57.114" r="56.215"/>
<rect x="0.905" y="51.228" fill="#FFCB50" width="411.467" height="8.645"/>
<g>
	<g>
		<g>
			<path fill="#FFFFFF" d="M456.624,30.009c-17.138,0-31.031,13.893-31.031,31.031h62.062
				C487.655,43.902,473.762,30.009,456.624,30.009z"/>
		</g>
		<g>
			<path fill="#FFFFFF" d="M481.342,44.096c-8.239,0-14.917,7.586-14.917,16.944h29.835
				C496.259,51.681,489.581,44.096,481.342,44.096z"/>
		</g>
		<g>
			<path fill="#FFCB50" d="M456.624,37.766c-12.854,0-23.273,10.42-23.273,23.274h46.546
				C479.897,48.186,469.478,37.766,456.624,37.766z"/>
		</g>
		<g>
			<rect x="449.164" y="33.499" fill="#FFFFFF" width="5.191" height="25.214"/>
		</g>
		<g>
			<rect x="429.672" y="46.91" fill="#FFFFFF" width="53.903" height="14.061"/>
		</g>
		<g>
			<g>
				<circle fill="#FFFFFF" cx="439.418" cy="61.816" r="7.814"/>
				<path fill="#FFFFFF" d="M439.418,70.474c-4.774,0-8.659-3.884-8.659-8.659c0-4.775,3.884-8.659,8.659-8.659
					c4.775,0,8.66,3.884,8.66,8.659C448.078,66.59,444.193,70.474,439.418,70.474z M439.418,54.848
					c-3.842,0-6.967,3.125-6.967,6.968c0,3.841,3.125,6.967,6.967,6.967c3.842,0,6.968-3.125,6.968-6.967
					C446.386,57.973,443.26,54.848,439.418,54.848z"/>
			</g>
			<g>
				<circle fill="#FFFFFF" cx="480.036" cy="61.816" r="7.813"/>
				<path fill="#FFFFFF" d="M480.036,70.474c-4.774,0-8.659-3.884-8.659-8.659c0-4.775,3.884-8.659,8.659-8.659
					c4.775,0,8.659,3.884,8.659,8.659C488.695,66.59,484.811,70.474,480.036,70.474z M480.036,54.848
					c-3.841,0-6.967,3.125-6.967,6.968c0,3.841,3.125,6.967,6.967,6.967c3.842,0,6.968-3.125,6.968-6.967
					C487.003,57.973,483.878,54.848,480.036,54.848z"/>
			</g>
		</g>
	</g>
	<g>
		<polygon fill="#FFFFFF" points="433.349,84.702 434.195,76.242 440.963,75.115 445.193,69.475 443.219,77.37 436.17,78.498 		"/>
	</g>
	<g>
		<polygon fill="#FFFFFF" points="466.24,89.83 465.277,79.958 472.762,77.122 476.313,69.704 475.858,79.188 468.05,82.089 		"/>
	</g>
	<g>
		<polygon fill="#FFFFFF" points="453.157,84.685 449.042,79.656 452.091,75.389 451.328,70.055 454.529,75.389 451.328,79.809 		
			"/>
	</g>
	<g>
		<polygon fill="#FFFFFF" points="497.96,74.149 492.771,73.426 492.238,69.232 488.865,66.492 493.681,67.896 494.207,72.264 		"/>
	</g>
</g>
</svg>
