<?xml version="1.0" encoding="utf-8"?>
<!-- Generator: Adobe Illustrator 17.0.0, SVG Export Plug-In . SVG Version: 6.00 Build 0)  -->
<!DOCTYPE svg PUBLIC "-//W3C//DTD SVG 1.1//EN" "http://www.w3.org/Graphics/SVG/1.1/DTD/svg11.dtd">
<svg version="1.1" id="Layer_1" xmlns="http://www.w3.org/2000/svg" xmlns:xlink="http://www.w3.org/1999/xlink" x="0px" y="0px"
	 width="612px" height="792px" viewBox="0 0 612 792" enable-background="new 0 0 612 792" xml:space="preserve">
<title>icons</title>
<circle fill="#008ECE" cx="306" cy="396" r="306"/>
<g>
	<g>
		<g>
			<path fill="#FFFFFF" d="M321.671,337.584c-1.135,45.707-10.201,81.922-36.385,112.046c-16.149,18.58-36.164,29.951-61.641,28.908
				c-21.032-0.861-38.051-10.501-52.228-25.411c-23.163-24.361-33.879-54.321-38.025-87.019
				c-2.757-21.742-1.335-43.311,3.527-64.677c1.987-8.733,5.304-10.772,13.817-8.18c32.525,9.902,65.881,10.91,99.451,8.987
				c18.859-1.081,37.467-3.862,55.522-9.805c5.13-1.689,9.425,1.251,10.411,7.311C318.523,314.511,320.483,329.351,321.671,337.584z
				 M189.967,403.833c-0.823,3.273-1.598,5.133-1.721,7.034c-1.014,15.733,4.912,28.308,18.339,36.556
				c13.202,8.111,27.123,8.11,40.312-0.028c13.644-8.419,19.561-21.168,18.189-37.187c-0.467-5.455-1.78-6.146-6.275-3.235
				c-8.39,5.435-17.63,7.844-27.532,8.349C216.754,416.064,203.088,413.596,189.967,403.833z M277.609,369.119
				c7.955-4.149,7.701-12.527,0.134-17.408c-9.568-6.172-20.97-3.79-26.798,6.267c-1.865,3.219-3.096,7.929-2.131,11.23
				c0.551,1.883,6.1,2.363,9.439,3.332C259.19,372.812,272.781,371.636,277.609,369.119z M200.156,372.271
				c3.899-0.573,6.277-2.755,5.389-7.17c-1.471-7.315-5.698-12.707-12.447-15.458c-6.681-2.723-13.282-1.144-18.877,3.256
				c-5.992,4.712-5.933,11.805,0.715,15.564C179.828,371.229,197.375,372.68,200.156,372.271z"/>
			<path fill="#FFFFFF" d="M263.097,482.001c12.111-10.122,23.249-19.431,34.689-28.991c13.621,6.314,23.41,3.709,29.313-8.42
				c3.719-7.641,1.511-11.588-6.979-12.203c-3.029-0.219-6.087-0.035-8.905-0.035c5.681-15.227,11.296-30.279,17.303-46.382
				c14.969,0,31.063,1.127,46.924-0.307c16.866-1.525,33.586-5.119,50.227-8.513c8.837-1.802,11.91-0.572,13.849,8.298
				c9.47,43.334,5.688,85.134-14.953,124.801c-7.971,15.319-18.729,28.534-32.983,38.533
				c-31.058,21.788-69.162,17.417-96.099-10.489C279.604,521.842,269.324,502.396,263.097,482.001z M313.704,524.857
				c24.109-14.774,48.343-14.571,72.365,0.157c6.028-11.513-0.297-31.819-13.513-41.084c-15.328-10.746-35.778-9.488-49.294,2.961
				C314.293,495.152,307.036,512.952,313.704,524.857z M375.262,433.316c-1.983,0.896-4.434,4.024-4.238,5.901
				c0.822,7.879,5.578,13.459,12.879,16.281c7.082,2.738,13.675,0.754,19.159-4.202c4.91-4.438,5.025-10.397-0.613-13.93
				C397.368,434.183,378.075,432.045,375.262,433.316z"/>
		</g>
	</g>
	<path fill="#FFFFFF" d="M388.144,329.907c0-2.66,0-5.152,0-7.645c0-25.106-0.001-50.213,0.001-75.319
		c0-3.907,0.472-4.352,4.34-4.847c17.165-2.197,34.324-4.434,51.486-6.658c6.658-0.863,13.315-1.734,19.974-2.59
		c2.761-0.355,3.843,0.662,3.847,3.715c0.017,12.596,0.007,25.193,0.007,37.789c0,14.322,0.005,28.644-0.002,42.966
		c-0.005,11.373-5.856,19.341-16.671,22.726c-10.251,3.209-22.039-0.599-27.874-9.004c-6.459-9.304-4.253-21.47,5.14-28.346
		c10.089-7.386,24.555-6.234,33.36,2.653c0.233,0.235,0.503,0.434,1.012,0.868c0-14.628,0-28.966,0-43.657
		c-23.282,3.013-46.389,6.003-69.723,9.022c0,1.214,0,2.231,0,3.248c0,19.757,0.007,39.515-0.008,59.272
		c-0.002,2.757-0.401,5.545-0.114,8.265c0.973,9.211-6.194,19.312-17.657,22.129c-9.871,2.427-20.737-1.163-26.393-8.836
		c-8.388-11.379-3.165-27.088,10.859-32.052c9.911-3.508,18.981-1.763,26.871,5.369c0.319,0.288,0.644,0.571,0.974,0.846
		C387.624,329.862,387.72,329.847,388.144,329.907z"/>
</g>
</svg>
