<?xml version="1.0" encoding="utf-8"?>
<!-- Generator: Adobe Illustrator 17.0.0, SVG Export Plug-In . SVG Version: 6.00 Build 0)  -->
<!DOCTYPE svg PUBLIC "-//W3C//DTD SVG 1.1//EN" "http://www.w3.org/Graphics/SVG/1.1/DTD/svg11.dtd">
<svg version="1.1" id="Grid" xmlns="http://www.w3.org/2000/svg" xmlns:xlink="http://www.w3.org/1999/xlink" x="0px" y="0px"
	 width="244px" height="64px" viewBox="0 0 244 64" enable-background="new 0 0 244 64" xml:space="preserve">
<g>
	<circle fill="#FFCB50" cx="211.948" cy="32.473" r="30.946"/>
	<rect x="6.668" y="29.727" fill="#FFCB50" width="176.77" height="7.542"/>
	<g>
		<g>
			<g>
				<path fill="#FFFFFF" d="M211.065,18.781c-9.435,0-17.083,7.648-17.083,17.083h34.165C228.148,26.43,220.5,18.781,211.065,18.781
					z"/>
			</g>
			<g>
				<path fill="#FFFFFF" d="M224.672,26.536c-4.536,0-8.212,4.176-8.212,9.328h16.424C232.884,30.712,229.208,26.536,224.672,26.536
					z"/>
			</g>
			<g>
				<path fill="#FFCB50" d="M211.065,23.052c-7.076,0-12.812,5.736-12.812,12.812h25.624
					C223.877,28.788,218.141,23.052,211.065,23.052z"/>
			</g>
			<g>
				<rect x="206.958" y="20.703" fill="#FFFFFF" width="2.857" height="13.88"/>
			</g>
			<g>
				<rect x="196.228" y="28.086" fill="#FFFFFF" width="29.674" height="7.74"/>
			</g>
			<g>
				<g>
					<circle fill="#FFFFFF" cx="201.593" cy="36.291" r="4.301"/>
					<path fill="#FFFFFF" d="M201.593,41.058c-2.628,0-4.767-2.138-4.767-4.767c0-2.629,2.138-4.767,4.767-4.767
						c2.629,0,4.767,2.138,4.767,4.767C206.36,38.919,204.222,41.058,201.593,41.058z M201.593,32.455
						c-2.115,0-3.835,1.72-3.835,3.836c0,2.115,1.72,3.835,3.835,3.835c2.115,0,3.836-1.72,3.836-3.835
						C205.429,34.176,203.708,32.455,201.593,32.455z"/>
				</g>
				<g>
					<circle fill="#FFFFFF" cx="223.953" cy="36.291" r="4.301"/>
					<path fill="#FFFFFF" d="M223.953,41.058c-2.628,0-4.767-2.138-4.767-4.767c0-2.629,2.138-4.767,4.767-4.767
						c2.629,0,4.767,2.138,4.767,4.767C228.72,38.919,226.582,41.058,223.953,41.058z M223.953,32.455
						c-2.115,0-3.835,1.72-3.835,3.836c0,2.115,1.72,3.835,3.835,3.835c2.115,0,3.836-1.72,3.836-3.835
						C227.789,34.176,226.068,32.455,223.953,32.455z"/>
				</g>
			</g>
		</g>
		<g>
			<polygon fill="#FFFFFF" points="198.252,48.89 198.718,44.233 202.444,43.612 204.772,40.507 203.686,44.854 199.805,45.475 			
				"/>
		</g>
		<g>
			<polygon fill="#FFFFFF" points="216.359,51.713 215.828,46.279 219.949,44.717 221.904,40.634 221.653,45.855 217.355,47.452 			
				"/>
		</g>
		<g>
			<polygon fill="#FFFFFF" points="209.157,48.881 206.892,46.112 208.57,43.763 208.15,40.827 209.912,43.763 208.15,46.196 			"/>
		</g>
		<g>
			<polygon fill="#FFFFFF" points="233.821,43.081 230.964,42.683 230.67,40.374 228.814,38.866 231.465,39.638 231.755,42.043 			
				"/>
		</g>
	</g>
	<circle fill="#FFCB50" cx="6.668" cy="33.498" r="5.668"/>
</g>
</svg>
