<?xml version="1.0" encoding="utf-8"?>
<!-- Generator: Adobe Illustrator 17.0.0, SVG Export Plug-In . SVG Version: 6.00 Build 0)  -->
<!DOCTYPE svg PUBLIC "-//W3C//DTD SVG 1.1//EN" "http://www.w3.org/Graphics/SVG/1.1/DTD/svg11.dtd">
<svg version="1.1" id="Capa_1" xmlns="http://www.w3.org/2000/svg" xmlns:xlink="http://www.w3.org/1999/xlink" x="0px" y="0px"
	 width="515px" height="115px" viewBox="0 0 515 115" enable-background="new 0 0 515 115" xml:space="preserve">
<circle fill="#8D519F" cx="458.045" cy="56.964" r="56.215"/>
<rect x="0.594" y="51.079" fill="#8D519F" width="411.467" height="8.645"/>
<g>
	<path fill="#FFFFFF" d="M449.031,61.392c-0.425,0.141-0.778,0.543-1.124,0.869c-4.075,3.855-10.244,3.51-13.797-0.779
		c-3.427-4.136-2.558-10.327,1.897-13.526c3.67-2.635,8.611-2.145,12.069,1.195c0.975,0.942,1.882,1.049,2.625,0.311
		c0.701-0.696,0.65-1.609-0.14-2.464c-4.174-4.523-11.212-5.305-16.319-1.812c-5.147,3.52-6.987,10.292-4.264,15.838
		c1.967,4.007,5.244,6.295,9.629,7.1c0,1.796,0,3.558,0,5.439c-0.609,0-1.155-0.002-1.702,0.001
		c-0.593,0.003-1.189-0.022-1.78,0.024c-1.382,0.108-2.15,1.551-1.276,2.538c0.384,0.433,1.135,0.666,1.751,0.742
		c0.976,0.12,1.977,0.032,3.074,0.032c0,1.117-0.035,2.112,0.009,3.103c0.051,1.139,0.74,1.841,1.695,1.82
		c0.951-0.021,1.586-0.757,1.599-1.882c0.012-0.988,0.003-1.976,0.003-3.039c0.656,0,1.17,0.001,1.684,0
		c0.556-0.002,1.116,0.033,1.668-0.017c1.24-0.112,1.878-0.764,1.817-1.793c-0.058-0.993-0.684-1.5-1.931-1.522
		c-1.06-0.019-2.121-0.004-3.194-0.004c0-1.905,0-3.64,0-5.453c3.063-0.487,5.574-1.789,7.608-4
		c0.562-0.611,0.763-1.262,0.318-2.014C450.507,61.351,449.792,61.14,449.031,61.392z"/>
	<path fill="#FFFFFF" d="M461.425,50.437c-1.332-0.025-2.665-0.006-3.998-0.006c-1.333,0-2.666-0.021-3.998,0.007
		c-1.049,0.022-1.734,0.682-1.752,1.608c-0.02,0.982,0.673,1.674,1.789,1.684c2.665,0.023,5.331,0.024,7.996-0.001
		c1.046-0.01,1.751-0.695,1.773-1.61C463.257,51.173,462.515,50.457,461.425,50.437z"/>
	<path fill="#FFFFFF" d="M461.493,56.94c-2.7-0.05-5.402-0.053-8.102,0.001c-1.117,0.022-1.782,0.802-1.714,1.763
		c0.065,0.922,0.753,1.504,1.831,1.514c1.295,0.013,2.59,0.003,3.885,0.003c1.332,0,2.664,0.01,3.996-0.003
		c1.072-0.011,1.771-0.601,1.841-1.516C463.3,57.802,462.563,56.96,461.493,56.94z"/>
	<path fill="#FFFFFF" d="M490.338,43.439c-0.34-2.125-0.695-4.248-1.096-6.362c-0.267-1.409-1.331-2.263-2.704-2.072
		c-2.24,0.312-4.471,0.706-6.691,1.143c-1.064,0.209-1.563,1.286-1.135,2.229c0.375,0.829,1.063,1.08,1.922,0.94
		c0.991-0.161,1.981-0.331,3.17-0.53c-1.508,2.133-2.98,4.219-4.345,6.149c-1.842-1.08-3.984-1.703-6.269-1.703
		c-3.404,0-6.581,1.349-8.946,3.799c-0.651,0.675-0.632,1.75,0.043,2.401c0.675,0.651,1.75,0.632,2.401-0.043
		c1.719-1.781,4.028-2.762,6.502-2.762c4.983,0,9.036,4.054,9.036,9.036s-4.054,9.036-9.036,9.036c-2.355,0-4.584-0.901-6.277-2.536
		c-0.675-0.652-1.75-0.633-2.401,0.042c-0.652,0.675-0.633,1.75,0.042,2.401c2.33,2.25,5.397,3.49,8.637,3.49
		c6.855,0,12.432-5.577,12.432-12.432c0-3.359-1.341-6.408-3.513-8.648c1.414-2,2.934-4.154,4.504-6.374
		c0.205,1.27,0.343,2.28,0.535,3.28c0.209,1.085,0.901,1.611,1.857,1.475C489.917,45.269,490.502,44.461,490.338,43.439z"/>
</g>
</svg>
