<?xml version="1.0" encoding="utf-8"?>
<!-- Generator: Adobe Illustrator 17.0.0, SVG Export Plug-In . SVG Version: 6.00 Build 0)  -->
<!DOCTYPE svg PUBLIC "-//W3C//DTD SVG 1.1//EN" "http://www.w3.org/Graphics/SVG/1.1/DTD/svg11.dtd">
<svg version="1.1" id="Grid" xmlns="http://www.w3.org/2000/svg" xmlns:xlink="http://www.w3.org/1999/xlink" x="0px" y="0px"
	 width="244px" height="64px" viewBox="0 0 244 64" enable-background="new 0 0 244 64" xml:space="preserve">
<g>
	<circle fill="#008ECE" cx="211.948" cy="32.197" r="30.946"/>
	<rect x="6.668" y="29.451" fill="#008ECE" width="176.77" height="7.542"/>
	<circle fill="#008ECE" cx="6.668" cy="33.395" r="5.668"/>
</g>
<g>
	<g>
		<g>
			<path fill="#FFFFFF" d="M214.383,27.23c-0.127,5.112-1.141,9.162-4.069,12.531c-1.806,2.078-4.044,3.35-6.894,3.233
				c-2.352-0.096-4.255-1.174-5.841-2.842c-2.59-2.724-3.789-6.075-4.252-9.732c-0.308-2.431-0.149-4.844,0.394-7.233
				c0.222-0.977,0.593-1.205,1.545-0.915c3.637,1.107,7.368,1.22,11.122,1.005c2.109-0.121,4.19-0.432,6.209-1.097
				c0.574-0.189,1.054,0.14,1.164,0.818C214.031,24.649,214.25,26.309,214.383,27.23z M199.654,34.639
				c-0.092,0.366-0.179,0.574-0.192,0.787c-0.113,1.759,0.549,3.166,2.051,4.088c1.476,0.907,3.033,0.907,4.508-0.003
				c1.526-0.942,2.188-2.367,2.034-4.159c-0.052-0.61-0.199-0.687-0.702-0.362c-0.938,0.608-1.972,0.877-3.079,0.934
				C202.649,36.007,201.121,35.731,199.654,34.639z M209.455,30.756c0.89-0.464,0.861-1.401,0.015-1.947
				c-1.07-0.69-2.345-0.424-2.997,0.701c-0.209,0.36-0.346,0.887-0.238,1.256c0.062,0.211,0.682,0.264,1.056,0.373
				C207.395,31.169,208.915,31.038,209.455,30.756z M200.793,31.109c0.436-0.064,0.702-0.308,0.603-0.802
				c-0.165-0.818-0.637-1.421-1.392-1.729c-0.747-0.305-1.485-0.128-2.111,0.364c-0.67,0.527-0.664,1.32,0.08,1.741
				C198.52,30.993,200.482,31.155,200.793,31.109z"/>
			<path fill="#FFFFFF" d="M207.832,43.38c1.354-1.132,2.6-2.173,3.879-3.242c1.523,0.706,2.618,0.415,3.278-0.942
				c0.416-0.854,0.169-1.296-0.78-1.365c-0.339-0.025-0.681-0.004-0.996-0.004c0.635-1.703,1.263-3.386,1.935-5.187
				c1.674,0,3.474,0.126,5.248-0.034c1.886-0.171,3.756-0.573,5.617-0.952c0.988-0.202,1.332-0.064,1.549,0.928
				c1.059,4.846,0.636,9.521-1.672,13.957c-0.891,1.713-2.095,3.191-3.689,4.309c-3.473,2.437-7.735,1.948-10.747-1.173
				C209.678,47.836,208.528,45.661,207.832,43.38z M213.492,48.173c2.696-1.652,5.406-1.63,8.093,0.018
				c0.674-1.288-0.033-3.558-1.511-4.595c-1.714-1.202-4.001-1.061-5.513,0.331C213.558,44.851,212.746,46.842,213.492,48.173z
				 M220.376,37.936c-0.222,0.1-0.496,0.45-0.474,0.66c0.092,0.881,0.624,1.505,1.44,1.821c0.792,0.306,1.529,0.084,2.143-0.47
				c0.549-0.496,0.562-1.163-0.069-1.558C222.848,38.033,220.69,37.794,220.376,37.936z"/>
		</g>
	</g>
	<path fill="#FFFFFF" d="M221.817,26.371c0-0.297,0-0.576,0-0.855c0-2.808,0-5.616,0-8.423c0-0.437,0.053-0.487,0.485-0.542
		c1.92-0.246,3.839-0.496,5.758-0.745c0.745-0.096,1.489-0.194,2.234-0.29c0.309-0.04,0.43,0.074,0.43,0.416
		c0.002,1.409,0.001,2.817,0.001,4.226c0,1.602,0.001,3.203,0,4.805c-0.001,1.272-0.655,2.163-1.864,2.542
		c-1.146,0.359-2.465-0.067-3.117-1.007c-0.722-1.041-0.476-2.401,0.575-3.17c1.128-0.826,2.746-0.697,3.731,0.297
		c0.026,0.026,0.056,0.049,0.113,0.097c0-1.636,0-3.239,0-4.882c-2.604,0.337-5.188,0.671-7.797,1.009c0,0.136,0,0.249,0,0.363
		c0,2.21,0.001,4.419-0.001,6.629c0,0.308-0.045,0.62-0.013,0.924c0.109,1.03-0.693,2.16-1.975,2.475
		c-1.104,0.271-2.319-0.13-2.952-0.988c-0.938-1.273-0.354-3.029,1.214-3.585c1.108-0.392,2.123-0.197,3.005,0.6
		c0.036,0.032,0.072,0.064,0.109,0.095C221.758,26.366,221.769,26.365,221.817,26.371z"/>
</g>
</svg>
