<?xml version="1.0" encoding="utf-8"?>
<!-- Generator: Adobe Illustrator 17.0.0, SVG Export Plug-In . SVG Version: 6.00 Build 0)  -->
<!DOCTYPE svg PUBLIC "-//W3C//DTD SVG 1.1//EN" "http://www.w3.org/Graphics/SVG/1.1/DTD/svg11.dtd">
<svg version="1.1" id="Capa_1" xmlns="http://www.w3.org/2000/svg" xmlns:xlink="http://www.w3.org/1999/xlink" x="0px" y="0px"
	 width="515px" height="115px" viewBox="0 0 515 115" enable-background="new 0 0 515 115" xml:space="preserve">
<circle fill="#8D519F" cx="458.045" cy="56.964" r="56.215"/>
<rect x="0.594" y="51.079" fill="#8D519F" width="411.467" height="8.645"/>
<g>
	<g>
		<g>
			<path fill="#FFFFFF" d="M462.023,81.4c-13.13,0-23.813-10.682-23.813-23.812c0-13.13,10.683-23.812,23.813-23.812
				s23.812,10.682,23.812,23.812C485.835,70.718,475.153,81.4,462.023,81.4z M462.023,37.91c-10.852,0-19.679,8.828-19.679,19.679
				c0,10.851,8.827,19.678,19.679,19.678c10.851,0,19.679-8.828,19.679-19.678C481.702,46.737,472.875,37.91,462.023,37.91z"/>
		</g>
	</g>
	<g>
		<g>
			<polygon fill="#FFFFFF" points="462.022,57.418 431.55,40.379 462.022,23.341 492.497,40.379 			"/>
		</g>
		<g>
			<path fill="#FFFFFF" d="M462.023,60.001c-0.436,0-0.869-0.11-1.261-0.328l-30.473-17.039c-0.818-0.457-1.324-1.32-1.324-2.255
				c0-0.935,0.506-1.799,1.324-2.255l30.473-17.039c0.784-0.438,1.738-0.438,2.521,0l30.473,17.039
				c0.817,0.456,1.323,1.32,1.323,2.255c0,0.935-0.506,1.798-1.323,2.255l-30.473,17.039
				C462.892,59.892,462.458,60.001,462.023,60.001z M436.844,40.379l25.179,14.078l25.179-14.078l-25.179-14.079L436.844,40.379z"/>
		</g>
	</g>
	<g>
		<g>
			<path fill="#8D519F" d="M457.565,37.54c0.5-0.29,0.672-0.931,0.381-1.431c-0.29-0.501-0.931-0.671-1.432-0.381
				c-0.026,0.015-0.047,0.035-0.071,0.051l-0.005-0.008l-34.722,20.047l1.05,1.813l34.722-20.047l-0.005-0.007
				C457.512,37.564,457.539,37.556,457.565,37.54z"/>
		</g>
		<g>
			<path fill="#8D519F" d="M422.578,58.337l-1.568-2.707l35.246-20.35c0.008-0.004,0.015-0.008,0.023-0.013l0.321-0.185l0.028,0.043
				c0.668-0.181,1.417,0.124,1.765,0.725c0.353,0.609,0.247,1.358-0.207,1.849l0.033,0.05l-0.31,0.186
				c-0.028,0.019-0.056,0.036-0.085,0.053l-0.077,0.044L422.578,58.337z M422.423,56.007l0.533,0.919l33.798-19.514l-0.033-0.051
				l0.555-0.256c0.284-0.158,0.371-0.483,0.225-0.737c-0.141-0.243-0.478-0.336-0.726-0.193l-0.434,0.307l-0.031-0.039
				L422.423,56.007z"/>
		</g>
	</g>
	<g>
		<g>
			<path fill="#FFFFFF" d="M433.636,69.16c-0.001,0.909,0.702,1.646,1.568,1.647c0.867,0.001,1.57-0.735,1.571-1.644
				c0.001-0.047-0.009-0.091-0.013-0.137h0.013l0.14-25.347l-3.14-0.003l-0.14,25.347h0.013
				C433.645,69.069,433.636,69.113,433.636,69.16z"/>
		</g>
	</g>
	<g>
		<g>
			<polygon fill="#FFFFFF" points="431.227,73.004 435.255,66.027 439.283,73.004 			"/>
		</g>
	</g>
	<g>
		<g>
			<g>
				<path fill="#FFFFFF" d="M453.322,62.957c1.554-0.518,2.393-2.198,1.875-3.752l-5.626,1.877
					C450.089,62.636,451.769,63.476,453.322,62.957z"/>
			</g>
		</g>
		<g>
			<g>
				<path fill="#FFFFFF" d="M470.724,62.957c-1.554-0.518-2.394-2.198-1.875-3.752l5.627,1.877
					C473.958,62.636,472.278,63.476,470.724,62.957z"/>
			</g>
		</g>
	</g>
</g>
</svg>
