<?xml version="1.0" encoding="utf-8"?>
<!-- Generator: Adobe Illustrator 17.0.0, SVG Export Plug-In . SVG Version: 6.00 Build 0)  -->
<!DOCTYPE svg PUBLIC "-//W3C//DTD SVG 1.1//EN" "http://www.w3.org/Graphics/SVG/1.1/DTD/svg11.dtd">
<svg version="1.1" id="Capa_1" xmlns="http://www.w3.org/2000/svg" xmlns:xlink="http://www.w3.org/1999/xlink" x="0px" y="0px"
	 width="515px" height="115px" viewBox="0 0 515 115" enable-background="new 0 0 515 115" xml:space="preserve">
<rect x="0.905" y="52.579" fill="#91C73E" width="411.467" height="8.645"/>
<circle fill="#91C73E" cx="457.316" cy="57.325" r="56.215"/>
<g>
	<g>
		<defs>
			<polygon id="SVGID_1_" points="418.124,34.945 419.178,67.989 444.841,60.959 459.137,46.428 470.386,22.992 441.326,19.477 			
				"/>
		</defs>
		<clipPath id="SVGID_2_">
			<use xlink:href="#SVGID_1_"  overflow="visible"/>
		</clipPath>
		<g clip-path="url(#SVGID_2_)">
			<path fill="#FFFFFF" d="M483.867,65.805c5.445-14.938-2.277-31.522-17.215-36.968c-9.004-3.282-18.606-1.78-26.006,3.203
				l2.724,7.138c5.66-4.515,13.47-6.07,20.756-3.414c11.119,4.054,16.867,16.397,12.814,27.516
				c-4.054,11.119-16.397,16.867-27.516,12.813c-11.119-4.054-16.867-16.397-12.813-27.516c0.094-0.261,0.194-0.519,0.298-0.773
				l4.975,1.813c0.46,0.168,0.974,0.05,1.316-0.299c0.341-0.35,0.446-0.868,0.267-1.322l-5.012-12.763
				c-0.13-0.332-0.396-0.592-0.731-0.714c-0.334-0.122-0.705-0.095-1.018,0.076l-12.05,6.543c-0.272,0.147-0.473,0.387-0.575,0.667
				c-0.059,0.162-0.085,0.338-0.071,0.517c0.036,0.487,0.354,0.909,0.814,1.076l5.158,1.88c-0.102,0.255-0.202,0.513-0.297,0.774
				c-5.446,14.938,2.277,31.522,17.215,36.969C461.837,88.467,478.421,80.744,483.867,65.805z"/>
		</g>
	</g>
	<g>
		<defs>
			<polygon id="SVGID_3_" points="469.214,22.934 452.575,25.394 449.177,41.682 459.02,56.33 480.112,72.501 490.541,73.438 
				493.354,38.87 			"/>
		</defs>
		<clipPath id="SVGID_4_">
			<use xlink:href="#SVGID_3_"  overflow="visible"/>
		</clipPath>
		<g clip-path="url(#SVGID_4_)">
			<path fill="#FFFFFF" d="M432.673,71.561c8.614,13.365,26.495,17.231,39.86,8.617c8.056-5.192,12.659-13.751,13.16-22.658
				l-7.334-2.142c0.178,7.238-3.301,14.401-9.82,18.603c-9.947,6.411-23.257,3.534-29.668-6.414
				c-6.411-9.947-3.535-23.257,6.414-29.668c9.948-6.411,23.257-3.534,29.668,6.413c0.15,0.233,0.296,0.468,0.436,0.705
				l-4.451,2.869c-0.411,0.265-0.629,0.746-0.557,1.229c0.073,0.483,0.422,0.879,0.893,1.012l13.198,3.718
				c0.343,0.097,0.711,0.041,1.011-0.151c0.299-0.193,0.502-0.505,0.555-0.858l2.066-13.555c0.047-0.305-0.023-0.611-0.184-0.861
				c-0.093-0.145-0.218-0.272-0.369-0.37c-0.41-0.265-0.938-0.266-1.349-0.001l-4.614,2.974c-0.143-0.236-0.287-0.472-0.438-0.704
				c-8.614-13.365-26.495-17.23-39.86-8.616C427.926,40.316,424.06,58.197,432.673,71.561z"/>
		</g>
	</g>
	<g>
		<defs>
			<polygon id="SVGID_5_" points="418.827,50.647 429.49,40.1 444.607,49.944 477.534,58.849 492.885,60.021 478.354,93.886 
				443.318,92.011 			"/>
		</defs>
		<clipPath id="SVGID_6_">
			<use xlink:href="#SVGID_5_"  overflow="visible"/>
		</clipPath>
		<g clip-path="url(#SVGID_6_)">
			<path fill="#FFFFFF" d="M456.846,27.257c-15.9,0-28.836,12.936-28.836,28.836c0,9.584,4.701,18.09,11.917,23.336l5.773-5.004
				c-6.18-3.772-10.317-10.577-10.317-18.332c0-11.835,9.629-21.463,21.463-21.463c11.834,0,21.463,9.628,21.463,21.463
				c0,11.835-9.629,21.463-21.463,21.463c-0.277,0-0.554-0.006-0.829-0.016v-5.296c0-0.488-0.287-0.932-0.732-1.133
				c-0.445-0.201-0.968-0.122-1.333,0.202l-10.275,9.08c-0.267,0.236-0.42,0.575-0.42,0.932s0.153,0.695,0.42,0.932l10.275,9.08
				c0.231,0.205,0.525,0.312,0.822,0.312c0.173,0,0.348-0.036,0.511-0.11c0.446-0.201,0.732-0.644,0.732-1.133v-5.49
				c0.276,0.008,0.551,0.014,0.829,0.014c15.901,0,28.836-12.936,28.836-28.836C485.682,40.193,472.746,27.257,456.846,27.257z"/>
		</g>
	</g>
</g>
</svg>
