<?xml version="1.0" encoding="utf-8"?>
<!-- Generator: Adobe Illustrator 17.0.0, SVG Export Plug-In . SVG Version: 6.00 Build 0)  -->
<!DOCTYPE svg PUBLIC "-//W3C//DTD SVG 1.1//EN" "http://www.w3.org/Graphics/SVG/1.1/DTD/svg11.dtd">
<svg version="1.1" id="Grid" xmlns="http://www.w3.org/2000/svg" xmlns:xlink="http://www.w3.org/1999/xlink" x="0px" y="0px"
	 width="244px" height="64px" viewBox="0 0 244 64" enable-background="new 0 0 244 64" xml:space="preserve">
<g>
	<circle fill="#8D519F" cx="211.948" cy="32.197" r="30.946"/>
	<rect x="6.668" y="29.451" fill="#8D519F" width="176.77" height="7.542"/>
	<g>
		<g>
			<g>
				<path fill="#FFFFFF" d="M212.962,48.194c-7.228,0-13.109-5.88-13.109-13.108c0-7.228,5.881-13.109,13.109-13.109
					c7.228,0,13.108,5.88,13.108,13.109C226.07,42.313,220.19,48.194,212.962,48.194z M212.962,24.252
					c-5.974,0-10.833,4.86-10.833,10.833c0,5.973,4.859,10.833,10.833,10.833c5.974,0,10.833-4.86,10.833-10.833
					C223.795,29.112,218.936,24.252,212.962,24.252z"/>
			</g>
		</g>
		<g>
			<g>
				<polygon fill="#FFFFFF" points="212.961,34.991 196.186,25.612 212.961,16.232 229.738,25.612 				"/>
			</g>
			<g>
				<path fill="#FFFFFF" d="M212.962,36.413c-0.24,0-0.478-0.06-0.694-0.181l-16.776-9.38c-0.45-0.251-0.729-0.726-0.729-1.241
					s0.278-0.99,0.729-1.241l16.776-9.38c0.431-0.241,0.957-0.241,1.388,0l16.776,9.38c0.45,0.251,0.728,0.726,0.728,1.241
					s-0.278,0.99-0.728,1.241l-16.776,9.38C213.44,36.353,213.201,36.413,212.962,36.413z M199.101,25.612l13.861,7.75l13.861-7.75
					l-13.861-7.75L199.101,25.612z"/>
			</g>
		</g>
		<g>
			<g>
				<path fill="#8D519F" d="M210.508,24.049c0.275-0.16,0.37-0.512,0.21-0.788c-0.16-0.276-0.513-0.37-0.788-0.21
					c-0.014,0.008-0.026,0.019-0.039,0.028l-0.003-0.004l-19.114,11.036l0.578,0.998l19.114-11.036l-0.003-0.004
					C210.479,24.062,210.494,24.057,210.508,24.049z"/>
			</g>
			<g>
				<path fill="#8D519F" d="M191.248,35.497l-0.863-1.49l19.403-11.202c0.004-0.002,0.008-0.005,0.013-0.007l0.177-0.102
					l0.015,0.024c0.368-0.1,0.78,0.068,0.972,0.399c0.194,0.335,0.136,0.748-0.114,1.018l0.018,0.028l-0.171,0.102
					c-0.015,0.01-0.031,0.02-0.047,0.029l-0.042,0.024L191.248,35.497z M191.162,34.215l0.293,0.506l18.606-10.742l-0.018-0.028
					l0.305-0.141c0.156-0.087,0.204-0.266,0.124-0.406c-0.077-0.134-0.263-0.185-0.4-0.106l-0.239,0.169l-0.017-0.022
					L191.162,34.215z"/>
			</g>
		</g>
		<g>
			<g>
				<path fill="#FFFFFF" d="M197.335,41.455c0,0.5,0.386,0.906,0.863,0.907c0.477,0.001,0.864-0.405,0.865-0.905
					c0-0.026-0.005-0.05-0.007-0.076h0.007l0.077-13.953l-1.728-0.001l-0.077,13.953h0.007
					C197.34,41.405,197.335,41.43,197.335,41.455z"/>
			</g>
		</g>
		<g>
			<g>
				<polygon fill="#FFFFFF" points="196.009,43.572 198.226,39.731 200.444,43.572 				"/>
			</g>
		</g>
		<g>
			<g>
				<g>
					<path fill="#FFFFFF" d="M208.172,38.041c0.855-0.285,1.317-1.21,1.032-2.065l-3.097,1.033
						C206.392,37.864,207.317,38.326,208.172,38.041z"/>
				</g>
			</g>
			<g>
				<g>
					<path fill="#FFFFFF" d="M217.752,38.041c-0.855-0.285-1.318-1.21-1.032-2.065l3.098,1.033
						C219.532,37.864,218.607,38.326,217.752,38.041z"/>
				</g>
			</g>
		</g>
	</g>
	<circle fill="#8D519F" cx="6.668" cy="33.395" r="5.668"/>
</g>
</svg>
