<?xml version="1.0" encoding="utf-8"?>
<!-- Generator: Adobe Illustrator 17.0.0, SVG Export Plug-In . SVG Version: 6.00 Build 0)  -->
<!DOCTYPE svg PUBLIC "-//W3C//DTD SVG 1.1//EN" "http://www.w3.org/Graphics/SVG/1.1/DTD/svg11.dtd">
<svg version="1.1" id="Capa_1" xmlns="http://www.w3.org/2000/svg" xmlns:xlink="http://www.w3.org/1999/xlink" x="0px" y="0px"
	 width="515px" height="115px" viewBox="0 0 515 115" enable-background="new 0 0 515 115" xml:space="preserve">
<circle fill="#008ECE" cx="458.045" cy="56.964" r="56.215"/>
<rect x="0.594" y="51.079" fill="#008ECE" width="411.467" height="8.645"/>
<g>
	<g>
		<g>
			<path fill="#FFFFFF" d="M460.319,46.669c-0.222,8.972-2.003,16.08-7.142,21.994c-3.17,3.647-7.098,5.879-12.1,5.675
				c-4.129-0.169-7.469-2.061-10.252-4.987c-4.546-4.782-6.65-10.662-7.463-17.081c-0.541-4.268-0.262-8.501,0.692-12.696
				c0.39-1.714,1.041-2.114,2.713-1.605c6.385,1.944,12.932,2.142,19.522,1.764c3.702-0.212,7.354-0.759,10.899-1.925
				c1.007-0.332,1.85,0.246,2.043,1.435C459.701,42.141,460.085,45.053,460.319,46.669z M434.466,59.674
				c-0.162,0.642-0.314,1.007-0.338,1.381c-0.199,3.088,0.964,5.557,3.6,7.176c2.591,1.592,5.324,1.592,7.913-0.006
				c2.678-1.653,3.84-4.155,3.57-7.299c-0.092-1.07-0.35-1.207-1.232-0.635c-1.647,1.067-3.461,1.54-5.405,1.639
				C439.723,62.075,437.042,61.59,434.466,59.674z M451.669,52.86c1.561-0.815,1.511-2.459,0.026-3.417
				c-1.878-1.212-4.116-0.744-5.26,1.23c-0.366,0.631-0.608,1.557-0.419,2.205c0.108,0.37,1.197,0.464,1.853,0.654
				C448.054,53.584,450.722,53.354,451.669,52.86z M436.466,53.479c0.766-0.113,1.232-0.541,1.058-1.408
				c-0.289-1.435-1.118-2.494-2.444-3.035c-1.312-0.535-2.607-0.225-3.706,0.639c-1.176,0.925-1.164,2.318,0.14,3.055
				C432.475,53.274,435.92,53.558,436.466,53.479z"/>
			<path fill="#FFFFFF" d="M448.821,75.017c2.377-1.987,4.564-3.814,6.809-5.69c2.673,1.239,4.595,0.728,5.754-1.653
				c0.73-1.5,0.296-2.275-1.37-2.395c-0.595-0.043-1.195-0.007-1.748-0.007c1.115-2.988,2.218-5.944,3.396-9.104
				c2.939,0,6.097,0.221,9.211-0.061c3.311-0.3,6.593-1.005,9.86-1.671c1.735-0.353,2.338-0.112,2.718,1.629
				c1.859,8.506,1.117,16.712-2.935,24.497c-1.565,3.007-3.676,5.601-6.474,7.563c-6.097,4.276-13.576,3.419-18.863-2.058
				C452.061,82.838,450.043,79.021,448.821,75.017z M458.754,83.429c4.733-2.9,9.49-2.86,14.205,0.031
				c1.183-2.259-0.058-6.246-2.653-8.064c-3.009-2.11-7.023-1.862-9.676,0.582C458.87,77.599,457.446,81.093,458.754,83.429z
				 M470.838,65.461c-0.389,0.176-0.87,0.79-0.832,1.158c0.162,1.546,1.095,2.642,2.528,3.195c1.39,0.538,2.684,0.149,3.76-0.825
				c0.963-0.872,0.986-2.041-0.12-2.734C475.177,65.631,471.39,65.211,470.838,65.461z"/>
		</g>
	</g>
	<path fill="#FFFFFF" d="M473.367,45.163c0-0.522,0-1.011,0-1.501c0-4.928,0-9.856,0-14.785c0-0.767,0.093-0.854,0.851-0.951
		c3.369-0.432,6.738-0.87,10.106-1.307c1.307-0.169,2.614-0.34,3.921-0.509c0.542-0.07,0.754,0.13,0.755,0.729
		c0.004,2.472,0.001,4.945,0.001,7.418c0,2.811,0.001,5.622,0,8.434c-0.001,2.232-1.15,3.796-3.273,4.461
		c-2.012,0.63-4.326-0.118-5.471-1.767c-1.268-1.827-0.835-4.214,1.008-5.564c1.98-1.45,4.82-1.224,6.549,0.521
		c0.045,0.046,0.099,0.086,0.199,0.17c0-2.872,0-5.686,0-8.569c-4.57,0.591-9.106,1.178-13.686,1.771c0,0.238,0,0.438,0,0.637
		c0,3.878,0.001,7.756-0.001,11.635c0,0.541-0.079,1.088-0.023,1.622c0.191,1.808-1.215,3.791-3.466,4.344
		c-1.937,0.477-4.071-0.228-5.181-1.735c-1.646-2.233-0.621-5.317,2.132-6.292c1.945-0.689,3.726-0.346,5.274,1.054
		c0.063,0.057,0.126,0.112,0.191,0.166C473.264,45.154,473.283,45.151,473.367,45.163z"/>
</g>
</svg>
