<?xml version="1.0" encoding="utf-8"?>
<!-- Generator: Adobe Illustrator 17.0.0, SVG Export Plug-In . SVG Version: 6.00 Build 0)  -->
<!DOCTYPE svg PUBLIC "-//W3C//DTD SVG 1.1//EN" "http://www.w3.org/Graphics/SVG/1.1/DTD/svg11.dtd">
<svg version="1.1" id="Grid" xmlns="http://www.w3.org/2000/svg" xmlns:xlink="http://www.w3.org/1999/xlink" x="0px" y="0px"
	 width="244px" height="64px" viewBox="0 0 244 64" enable-background="new 0 0 244 64" xml:space="preserve">
<g>
	<circle fill="#8D519F" cx="211.948" cy="32.197" r="30.946"/>
	<rect x="6.668" y="29.451" fill="#8D519F" width="176.77" height="7.542"/>
	<circle fill="#8D519F" cx="6.668" cy="33.395" r="5.668"/>
	<g>
		<path fill="#FFFFFF" d="M204.618,36.48c-0.296,0.098-0.543,0.378-0.784,0.606c-2.841,2.687-7.142,2.447-9.619-0.543
			c-2.389-2.884-1.784-7.2,1.323-9.43c2.559-1.837,6.003-1.496,8.414,0.833c0.68,0.657,1.312,0.732,1.83,0.217
			c0.489-0.485,0.453-1.122-0.097-1.718c-2.91-3.154-7.816-3.698-11.377-1.263c-3.588,2.454-4.871,7.175-2.973,11.042
			c1.371,2.793,3.656,4.389,6.713,4.95c0,1.252,0,2.48,0,3.792c-0.425,0-0.805-0.002-1.186,0c-0.414,0.002-0.829-0.016-1.241,0.017
			c-0.964,0.076-1.499,1.082-0.889,1.769c0.268,0.302,0.792,0.464,1.22,0.517c0.68,0.084,1.378,0.022,2.143,0.022
			c0,0.779-0.024,1.472,0.006,2.163c0.035,0.794,0.516,1.284,1.181,1.269c0.663-0.015,1.105-0.528,1.115-1.312
			c0.008-0.689,0.002-1.377,0.002-2.119c0.457,0,0.816,0.001,1.174,0c0.388-0.001,0.778,0.023,1.163-0.012
			c0.864-0.078,1.309-0.532,1.267-1.25c-0.041-0.692-0.477-1.046-1.346-1.061c-0.739-0.013-1.479-0.003-2.227-0.003
			c0-1.328,0-2.538,0-3.801c2.135-0.339,3.886-1.248,5.304-2.789c0.392-0.426,0.532-0.88,0.222-1.404
			C205.647,36.451,205.149,36.304,204.618,36.48z"/>
		<path fill="#FFFFFF" d="M213.259,28.842c-0.929-0.018-1.858-0.004-2.787-0.004s-1.858-0.015-2.787,0.005
			c-0.731,0.016-1.209,0.475-1.222,1.121c-0.014,0.685,0.469,1.167,1.247,1.174c1.858,0.016,3.716,0.017,5.574-0.001
			c0.73-0.007,1.221-0.485,1.236-1.123C214.536,29.356,214.019,28.856,213.259,28.842z"/>
		<path fill="#FFFFFF" d="M213.306,33.376c-1.882-0.035-3.766-0.037-5.648,0.001c-0.779,0.015-1.242,0.559-1.195,1.229
			c0.046,0.643,0.525,1.048,1.276,1.056c0.903,0.009,1.806,0.002,2.708,0.002c0.929,0,1.857,0.007,2.786-0.002
			c0.747-0.008,1.235-0.419,1.283-1.057C214.566,33.977,214.052,33.39,213.306,33.376z"/>
		<path fill="#FFFFFF" d="M233.416,23.964c-0.237-1.481-0.485-2.961-0.764-4.435c-0.186-0.982-0.928-1.578-1.885-1.444
			c-1.562,0.217-3.117,0.492-4.665,0.797c-0.742,0.146-1.089,0.896-0.791,1.554c0.262,0.578,0.741,0.753,1.34,0.655
			c0.691-0.112,1.381-0.231,2.21-0.369c-1.051,1.487-2.078,2.942-3.029,4.287c-1.284-0.753-2.777-1.187-4.37-1.187
			c-2.373,0-4.588,0.941-6.237,2.649c-0.454,0.47-0.441,1.22,0.03,1.674c0.47,0.454,1.22,0.441,1.674-0.03
			c1.198-1.242,2.808-1.925,4.533-1.925c3.474,0,6.3,2.826,6.3,6.3s-2.826,6.3-6.3,6.3c-1.642,0-3.196-0.628-4.376-1.768
			c-0.47-0.454-1.22-0.441-1.674,0.029c-0.454,0.47-0.441,1.22,0.029,1.674c1.624,1.569,3.763,2.433,6.021,2.433
			c4.779,0,8.668-3.888,8.668-8.668c0-2.342-0.935-4.468-2.449-6.029c0.986-1.394,2.045-2.896,3.14-4.444
			c0.143,0.885,0.239,1.59,0.373,2.287c0.145,0.756,0.628,1.123,1.295,1.028C233.123,25.239,233.53,24.676,233.416,23.964z"/>
	</g>
</g>
</svg>
