<svg width="9" height="15" viewBox="0 0 9 15" fill="none" xmlns="http://www.w3.org/2000/svg">
<path d="M8.69291 0.342385L6.73695 0.339355C4.5395 0.339355 3.1194 1.74598 3.1194 3.92311V5.57546H1.15277C0.982831 5.57546 0.845215 5.70848 0.845215 5.87254V8.26661C0.845215 8.43068 0.982987 8.56354 1.15277 8.56354H3.1194V14.6045C3.1194 14.7686 3.25702 14.9015 3.42696 14.9015H5.99286C6.1628 14.9015 6.30041 14.7685 6.30041 14.6045V8.56354H8.59986C8.7698 8.56354 8.90742 8.43068 8.90742 8.26661L8.90836 5.87254C8.90836 5.79377 8.87588 5.71832 8.81829 5.66257C8.7607 5.60682 8.68224 5.57546 8.60065 5.57546H6.30041V4.17474C6.30041 3.5015 6.46659 3.15973 7.37497 3.15973L8.6926 3.15928C8.86238 3.15928 9 3.02626 9 2.86235V0.639315C9 0.475549 8.86254 0.342688 8.69291 0.342385Z" fill="black"/>
</svg>
