<svg width="146" height="114" viewBox="0 0 146 114" fill="none" xmlns="http://www.w3.org/2000/svg">
<path fill-rule="evenodd" clip-rule="evenodd" d="M116.016 0.0686778C110.859 0.0684351 105.796 1.42289 101.352 3.99181C96.9027 6.56373 93.2359 10.2591 90.7328 14.6937C88.2298 19.1283 86.9819 24.1403 87.1188 29.2089C87.2556 34.2774 88.7723 39.2174 91.5112 43.5155L92.0075 44.2945L95.3564 41.0056L95.0642 40.5183C91.9327 35.2826 90.9422 29.0746 92.2928 23.1492C93.6435 17.2238 97.2346 12.0229 102.34 8.5981C107.446 5.17329 113.685 3.7799 119.797 4.69966C125.908 5.61942 131.437 8.78369 135.264 13.5528C139.091 18.3219 140.931 24.3402 140.413 30.3909C139.895 36.4416 137.057 42.0735 132.473 46.148C127.888 50.2225 121.9 52.4358 115.718 52.3403C109.535 52.2448 103.621 49.8477 99.1691 45.6337L98.6496 45.1417L90.3702 53.0221V59.3082L98.7192 51.2183C103.701 54.9101 109.775 56.9001 116.016 56.8848C119.845 56.9325 123.646 56.2329 127.198 54.8266C130.75 53.4203 133.983 51.3354 136.708 48.6927C139.433 46.0501 141.597 42.9023 143.074 39.432C144.551 35.9617 145.311 32.2379 145.311 28.4768C145.311 24.7156 144.551 20.9918 143.074 17.5215C141.597 14.0512 139.433 10.9035 136.708 8.26081C133.983 5.61815 130.75 3.53322 127.198 2.12695C123.646 0.720733 119.845 0.0211212 116.016 0.0686778ZM139.529 86.4072C137.622 81.3371 132.31 79.7098 127.638 78.2784L127.621 78.273L127.515 78.241C123.961 77.179 120.938 76.0759 119.967 73.3981C119.558 72.1043 119.675 70.7019 120.292 69.4935C121.868 66.5273 125.931 66.4952 126.1 66.4952C127.83 66.5148 129.536 66.8992 131.107 67.6234C132.677 68.3475 134.077 69.395 135.215 70.6973C135.494 70.9803 135.748 71.2866 135.975 71.6128C135.999 71.6486 136.031 71.6784 136.068 71.6998C136.106 71.7213 136.147 71.7338 136.19 71.7364C136.233 71.7402 136.276 71.7348 136.316 71.7206C136.357 71.7064 136.393 71.6837 136.424 71.654L140.024 68.0515C140.076 67.9971 140.104 67.925 140.104 67.8501C140.104 67.7752 140.076 67.7031 140.024 67.6487C138.275 65.6823 136.129 64.1078 133.728 63.0285C131.326 61.9493 128.724 61.3899 126.091 61.3868C125.248 61.3868 117.769 61.547 114.833 67.1132C114.171 68.3331 113.775 69.6789 113.67 71.0625C113.565 72.4461 113.753 73.8363 114.223 75.142C116.009 80.161 121.516 81.8145 125.961 83.1488L126.004 83.1618C129.778 84.3107 132.746 85.4139 133.758 88.197C133.756 88.2122 133.756 88.2277 133.758 88.2428C134.13 89.4172 134.09 90.6833 133.644 91.8316C132.59 94.3446 129.98 95.6949 126.073 95.7407C124.341 95.7304 122.632 95.3503 121.06 94.6255C119.488 93.9007 118.089 92.8481 116.958 91.5386C116.689 91.2798 116.456 90.9857 116.266 90.6643C116.243 90.6253 116.211 90.592 116.173 90.5667C116.135 90.5413 116.091 90.5246 116.046 90.5178C116.002 90.5115 115.956 90.5157 115.913 90.53C115.87 90.5443 115.831 90.5683 115.799 90.6002L112.135 94.2622C112.082 94.3168 112.052 94.3899 112.052 94.4659C112.052 94.5419 112.082 94.615 112.135 94.6696C113.903 96.6088 116.052 98.1616 118.449 99.2306C120.846 100.3 123.439 100.862 126.063 100.881C132.412 100.831 137.487 98.1348 139.305 93.8502C140.3 91.4828 140.38 88.8303 139.529 86.4072ZM19.7276 62.4263H5.2998C5.2215 62.4263 5.14634 62.4569 5.09055 62.5115C5.03476 62.566 5.00283 62.6402 5.00162 62.7181V99.5504C5.00162 99.5891 5.00935 99.6274 5.02439 99.6631C5.03943 99.6988 5.06146 99.7312 5.08921 99.7583C5.11696 99.7855 5.14988 99.8069 5.18603 99.8213C5.22219 99.8357 5.26086 99.8427 5.2998 99.8421H10.8324C10.8711 99.8428 10.9095 99.8357 10.9454 99.8212C10.9814 99.8068 11.014 99.7853 11.0413 99.7581C11.0687 99.7309 11.0903 99.6985 11.1049 99.6628C11.1194 99.6271 11.1266 99.5889 11.126 99.5504V90.1212H19.7276C27.0676 90.071 33.0635 83.8563 33.0635 76.2737C33.0635 68.6911 27.0814 62.4764 19.7276 62.4263ZM11.126 67.5284H19.6266C23.6866 67.5284 26.9897 71.4542 26.9897 76.2737C26.9897 81.0932 23.6866 85.0145 19.6266 85.0145H11.126V67.5284ZM63.5928 62.6086C63.571 62.555 63.5336 62.509 63.4856 62.4765C63.4375 62.444 63.3808 62.4266 63.3228 62.4263H59.9687C59.9106 62.4266 59.8539 62.444 59.8059 62.4765C59.7578 62.509 59.7205 62.555 59.6987 62.6086L44.516 99.4409C44.4988 99.4857 44.4926 99.534 44.4982 99.5816C44.5038 99.6293 44.5209 99.6749 44.5481 99.7146C44.5744 99.7545 44.6104 99.7872 44.6528 99.8095C44.6952 99.8318 44.7426 99.843 44.7906 99.8421H50.7026C50.7626 99.8427 50.8214 99.8252 50.8712 99.7918C50.921 99.7584 50.9596 99.7108 50.9817 99.6552L54.5555 90.2169H68.6903L72.3097 99.6552C72.3319 99.7108 72.3704 99.7584 72.4203 99.7918C72.4701 99.8252 72.5288 99.8427 72.5888 99.8421H78.5008C78.5487 99.8426 78.596 99.8312 78.6383 99.809C78.6807 99.7867 78.7168 99.7542 78.7434 99.7146C78.7709 99.675 78.7879 99.6292 78.7927 99.5813C78.7975 99.5334 78.79 99.4851 78.7708 99.4409L63.5928 62.6086ZM66.741 85.1148H56.5048L61.6435 71.6958L66.741 85.1148ZM91.5673 62.4263H97.2005C97.3669 62.4263 97.5019 62.5569 97.5019 62.718V99.5504C97.5019 99.7116 97.3669 99.8422 97.2005 99.8422H91.5673C91.4008 99.8422 91.2659 99.7116 91.2659 99.5504V62.718C91.2659 62.5569 91.4008 62.4263 91.5673 62.4263ZM19.6641 44.9867C19.6641 40.9396 17.0548 38.5217 12.6795 38.5217H5.00162V58.2689H6.87542V51.7757H11.9721H11.9737C12.4698 51.7757 12.9704 51.7757 13.4384 51.7194L18.2493 58.2689H20.5916L15.4058 51.2875C18.2072 50.3814 19.6641 48.2169 19.6641 44.9867ZM6.88946 40.3622H12.6233C17.0595 40.3622 17.72 43.2778 17.72 45.0149C17.72 48.3014 15.7806 49.9635 11.9581 49.9635H6.88946V40.3622ZM37.1361 49.5832H27.6315V56.4285H39.2995V58.2689H25.7883V38.5217H38.7506V40.3622H27.6315V47.7709H37.1361V49.5832ZM44.4962 40.3622H51.3318V58.2689H53.2225V40.3622H60.0862V38.5217H44.4962V40.3622ZM64.2435 48.3953C64.2435 42.9492 68.9157 38.5217 74.658 38.5217C80.391 38.5217 85.0301 42.9492 85.0301 48.3953C85.0301 53.8414 80.4004 58.2689 74.658 58.2689C68.9157 58.2689 64.2435 53.8414 64.2435 48.3953ZM66.1718 48.3953C66.1718 52.8043 69.9812 56.3947 74.658 56.3947V56.3853C79.3208 56.3853 83.1113 52.8182 83.1113 48.3953C83.1113 43.9724 79.3396 40.3727 74.658 40.3727C69.9764 40.3727 66.1718 43.9863 66.1718 48.3953ZM88.7146 111.534C88.9858 110.94 89.1215 110.247 89.1215 109.453V108.941C89.1215 108.151 88.9858 107.459 88.7146 106.866C88.4434 106.268 88.0554 105.814 87.5505 105.503C87.0495 105.187 86.4694 105.03 85.8101 105.03C85.1621 105.03 84.5857 105.189 84.0809 105.508C83.5799 105.823 83.1919 106.28 82.9169 106.877C82.6419 107.474 82.5044 108.162 82.5044 108.941V109.525C82.5119 110.289 82.6532 110.963 82.9282 111.545C83.2069 112.124 83.5968 112.57 84.0979 112.886C84.5989 113.197 85.1734 113.353 85.8214 113.353C86.4844 113.353 87.0646 113.197 87.5618 112.886C88.0591 112.574 88.4434 112.124 88.7146 111.534ZM87.4545 106.721C87.8463 107.233 88.0422 107.969 88.0422 108.93V109.531C88.0309 110.469 87.8331 111.191 87.4488 111.695C87.0646 112.196 86.5221 112.446 85.8214 112.446C85.1245 112.446 84.5763 112.181 84.177 111.651C83.7814 111.116 83.5837 110.384 83.5837 109.453V108.858C83.595 107.945 83.7965 107.233 84.1883 106.721C84.5839 106.205 85.1245 105.948 85.8101 105.948C86.5146 105.948 87.0627 106.205 87.4545 106.721ZM87.607 102.96H86.3413L85.2507 104.596H86.0926L87.607 102.96ZM55.4934 109.375C55.4934 110.172 55.3503 110.872 55.064 111.473C54.7776 112.073 54.367 112.537 53.8321 112.863C53.3009 113.19 52.6906 113.353 52.0012 113.353C51.3193 113.353 50.7109 113.192 50.176 112.869C49.641 112.546 49.2267 112.086 48.9328 111.489C48.639 110.888 48.4902 110.198 48.4864 109.419V109.019C48.4864 108.221 48.6314 107.52 48.9215 106.916C49.2154 106.307 49.6279 105.842 50.159 105.519C50.694 105.193 51.3043 105.03 51.9899 105.03C52.6755 105.03 53.2839 105.193 53.8151 105.519C54.3501 105.842 54.7626 106.307 55.0527 106.916C55.3465 107.52 55.4934 108.22 55.4934 109.013V109.375ZM53.7756 109.008C53.7756 108.158 53.6211 107.513 53.3122 107.072C53.0033 106.63 52.5625 106.409 51.9899 106.409C51.4211 106.409 50.9822 106.628 50.6733 107.066C50.3644 107.5 50.208 108.138 50.2042 108.98V109.375C50.2042 110.202 50.3587 110.844 50.6676 111.3C50.9765 111.756 51.4211 111.984 52.0012 111.984C52.5701 111.984 53.0071 111.766 53.3122 111.328C53.6173 110.886 53.7718 110.245 53.7756 109.403V109.008ZM3.21199 111.573H6.18433L6.75506 113.242H8.55767L5.47797 105.141H3.90705L0.844299 113.242H2.64691L3.21199 111.573ZM5.72661 110.221H3.66971L4.69251 107.188L5.72661 110.221ZM17.4069 112.368H13.5078V105.141H12.4172V113.242H17.4069V112.368ZM23.069 111.573H20.0967L19.5316 113.242H17.729L20.7917 105.141H22.3626L25.4423 113.242H23.6397L23.069 111.573ZM20.5544 110.221H22.6113L21.5772 107.188L20.5544 110.221ZM29.381 113.242H30.4659V105.141H29.381V113.242ZM38.7783 113.242H37.6877L33.5456 106.999V113.242H32.455V105.141H33.5456L37.699 111.411V105.141H38.7783V113.242ZM45.9379 113.242H47.0285V105.141H45.9492V111.411L41.7958 105.141H40.7052V113.242H41.7958V106.999L45.9379 113.242ZM62.0201 105.141L59.6694 111.823L57.3299 105.141H56.1489L59.1947 113.242H60.1553L63.2068 105.141H62.0201ZM68.7389 111.573H65.7666L65.2015 113.242H63.3989L66.4617 105.141H68.0326L71.1123 113.242H69.3097L68.7389 111.573ZM66.2243 110.221H68.2812L67.2471 107.188L66.2243 110.221ZM77.1869 112.658C77.7294 112.19 78.0515 111.528 78.1532 110.671H77.0626C76.9571 111.339 76.7424 111.808 76.4184 112.079C76.0982 112.346 75.6367 112.48 75.034 112.48C74.3634 112.48 73.8416 112.22 73.4687 111.701C73.0957 111.181 72.9093 110.482 72.9093 109.603V108.819C72.9093 107.888 73.1051 107.17 73.4969 106.665C73.8925 106.161 74.4369 105.909 75.13 105.909C75.6951 105.909 76.134 106.053 76.4467 106.343C76.7631 106.632 76.9684 107.099 77.0626 107.745H78.1532C78.0666 106.895 77.7595 106.231 77.2321 105.753C76.7047 105.271 76.004 105.03 75.13 105.03C74.4708 105.03 73.8906 105.184 73.3896 105.491C72.8885 105.796 72.5005 106.233 72.2255 106.804C71.9543 107.376 71.8186 108.038 71.8186 108.791V109.57C71.8186 110.72 72.1106 111.638 72.6945 112.324C73.2822 113.01 74.062 113.353 75.034 113.353C75.9306 113.353 76.6482 113.121 77.1869 112.658ZM80.8035 113.242H79.7185V105.141H80.8035V113.242ZM97.0722 113.242H95.9816L91.8395 106.999V113.242H90.7489V105.141H91.8395L95.9929 111.411V105.141H97.0722V113.242ZM102.26 108.663C102.685 109.045 103.363 109.368 104.294 109.631C105.036 109.842 105.548 110.057 105.831 110.276C106.113 110.491 106.255 110.797 106.255 111.194C106.255 111.591 106.102 111.905 105.797 112.135C105.492 112.365 105.053 112.48 104.48 112.48C103.866 112.48 103.375 112.339 103.006 112.057C102.64 111.771 102.457 111.384 102.457 110.894H101.367C101.367 111.365 101.499 111.786 101.762 112.157C102.03 112.528 102.408 112.821 102.898 113.036C103.388 113.247 103.915 113.353 104.48 113.353C105.351 113.353 106.046 113.157 106.566 112.763C107.085 112.366 107.345 111.84 107.345 111.183C107.345 110.771 107.251 110.414 107.063 110.109C106.878 109.805 106.592 109.54 106.204 109.314C105.82 109.084 105.285 108.874 104.599 108.685C103.917 108.496 103.433 108.288 103.147 108.062C102.864 107.832 102.723 107.552 102.723 107.222C102.723 106.81 102.872 106.489 103.169 106.259C103.471 106.026 103.889 105.909 104.424 105.909C105 105.909 105.447 106.05 105.763 106.332C106.08 106.61 106.238 106.994 106.238 107.483H107.328C107.328 107.034 107.206 106.621 106.961 106.242C106.72 105.864 106.377 105.567 105.933 105.352C105.492 105.137 104.989 105.03 104.424 105.03C103.595 105.03 102.921 105.239 102.401 105.658C101.885 106.074 101.627 106.6 101.627 107.238C101.627 107.802 101.838 108.277 102.26 108.663ZM115.07 109.453C115.07 110.247 114.934 110.94 114.663 111.534C114.392 112.124 114.008 112.574 113.51 112.886C113.013 113.197 112.433 113.353 111.77 113.353C111.122 113.353 110.548 113.197 110.046 112.886C109.545 112.57 109.156 112.124 108.877 111.545C108.602 110.963 108.46 110.289 108.453 109.525V108.941C108.453 108.162 108.59 107.474 108.865 106.877C109.14 106.28 109.528 105.823 110.03 105.508C110.534 105.189 111.111 105.03 111.759 105.03C112.418 105.03 112.998 105.187 113.499 105.503C114.004 105.814 114.392 106.268 114.663 106.866C114.934 107.459 115.07 108.151 115.07 108.941V109.453ZM113.991 108.93C113.991 107.969 113.795 107.233 113.403 106.721C113.011 106.205 112.463 105.948 111.759 105.948C111.073 105.948 110.532 106.205 110.137 106.721C109.745 107.233 109.544 107.945 109.532 108.858V109.453C109.532 110.384 109.73 111.116 110.126 111.651C110.525 112.181 111.073 112.446 111.77 112.446C112.471 112.446 113.013 112.196 113.397 111.695C113.782 111.191 113.979 110.469 113.991 109.531V108.93ZM121.783 112.658C122.326 112.19 122.648 111.528 122.75 110.671H121.659C121.553 111.339 121.339 111.808 121.015 112.079C120.695 112.346 120.233 112.48 119.63 112.48C118.96 112.48 118.438 112.22 118.065 111.701C117.692 111.181 117.506 110.482 117.506 109.603V108.819C117.506 107.888 117.701 107.17 118.093 106.665C118.489 106.161 119.033 105.909 119.726 105.909C120.291 105.909 120.73 106.053 121.043 106.343C121.359 106.632 121.565 107.099 121.659 107.745H122.75C122.663 106.895 122.356 106.231 121.828 105.753C121.301 105.271 120.6 105.03 119.726 105.03C119.067 105.03 118.487 105.184 117.986 105.491C117.485 105.796 117.097 106.233 116.822 106.804C116.551 107.376 116.415 108.038 116.415 108.791V109.57C116.415 110.72 116.707 111.638 117.291 112.324C117.879 113.01 118.658 113.353 119.63 113.353C120.527 113.353 121.245 113.121 121.783 112.658ZM125.4 113.242H124.315V105.141H125.4V113.242ZM127.813 113.242L128.587 111.128H132.034L132.819 113.242H133.933L130.785 105.141H129.836L126.694 113.242H127.813ZM131.712 110.248H128.915L130.31 106.459L131.712 110.248ZM136.515 111.901H140.115V113.242H134.82V105.141H136.515V111.901ZM122.281 37.8089C122.292 37.8407 122.307 37.8705 122.327 37.8974C122.322 37.8479 122.335 37.7984 122.363 37.7577V37.8835C122.363 37.9255 122.391 37.9254 122.423 37.9254C122.459 37.9421 122.493 37.9641 122.523 37.9907L122.614 38.0699C122.651 38.0978 122.696 38.1304 122.733 38.163C122.745 38.1739 122.758 38.1858 122.77 38.1977C122.796 38.2215 122.821 38.2453 122.842 38.2608C122.87 38.272 122.901 38.272 122.929 38.2608H123.015H123.088C123.115 38.2679 123.144 38.2679 123.17 38.2608C123.198 38.2608 123.207 38.2469 123.23 38.2608C123.253 38.2748 123.253 38.3401 123.253 38.3401C123.26 38.3511 123.271 38.3598 123.283 38.3655C123.29 38.3689 123.298 38.3712 123.305 38.3722C123.311 38.3729 123.316 38.373 123.321 38.3727C123.35 38.3698 123.379 38.3698 123.408 38.3727C123.417 38.3766 123.425 38.3866 123.434 38.3967C123.445 38.4102 123.456 38.424 123.471 38.424L123.563 38.4798C123.592 38.4944 123.614 38.5193 123.626 38.5498C123.637 38.5854 123.654 38.6186 123.677 38.6476C123.704 38.6802 123.745 38.7128 123.777 38.7361C123.798 38.7514 123.791 38.7689 123.784 38.787C123.781 38.7963 123.777 38.8059 123.777 38.8153C123.758 38.8419 123.744 38.872 123.736 38.9038C123.729 38.9439 123.729 38.9849 123.736 39.025V39.1648C123.733 39.2129 123.733 39.261 123.736 39.3091V39.3464C123.716 39.3795 123.702 39.4157 123.695 39.4536C123.685 39.4854 123.685 39.5195 123.695 39.5514L123.727 39.6167C123.731 39.635 123.731 39.6542 123.727 39.6725C123.731 39.7144 123.731 39.7565 123.727 39.7983C123.73 39.8386 123.73 39.8792 123.727 39.9195C123.721 39.9495 123.707 39.9772 123.686 39.9986C123.655 40.0271 123.617 40.0465 123.576 40.0546C123.535 40.0542 123.495 40.0446 123.458 40.0266C123.418 40.0127 123.379 39.994 123.344 39.9708C123.31 39.9439 123.278 39.9142 123.248 39.8822C123.213 39.8518 123.173 39.8282 123.129 39.8123C123.085 39.8007 123.038 39.8007 122.993 39.8123C122.952 39.8172 122.91 39.8172 122.87 39.8123C122.826 39.806 122.784 39.79 122.746 39.7657C122.715 39.7475 122.686 39.7257 122.66 39.7005L122.591 39.6213C122.578 39.6074 122.565 39.6004 122.553 39.5934C122.54 39.5864 122.528 39.5794 122.514 39.5654C122.496 39.5467 122.477 39.553 122.459 39.5592C122.45 39.5623 122.441 39.5654 122.432 39.5654C122.402 39.5757 122.37 39.5757 122.341 39.5654C122.31 39.5421 122.281 39.5173 122.254 39.4909C122.22 39.4607 122.179 39.4398 122.135 39.4303C122.096 39.4261 122.056 39.4261 122.017 39.4303H121.871H121.734C121.688 39.4247 121.644 39.4122 121.602 39.3931L121.474 39.3464L121.324 39.2998L121.196 39.2626C121.157 39.2556 121.12 39.2414 121.087 39.2206C121.055 39.1921 121.027 39.1591 121.005 39.1228C120.963 39.0762 120.9 39.0156 120.845 38.9644C120.8 38.9234 120.759 38.8782 120.722 38.8292C120.717 38.8191 120.714 38.808 120.714 38.7967C120.714 38.7854 120.717 38.7742 120.722 38.764C120.728 38.7302 120.728 38.6954 120.722 38.6616C120.708 38.6348 120.685 38.6135 120.658 38.6009L120.558 38.5498C120.536 38.5284 120.519 38.503 120.508 38.4751C120.498 38.448 120.484 38.4229 120.466 38.4006L120.366 38.3121C120.332 38.2841 120.295 38.2592 120.257 38.2376C120.224 38.2249 120.192 38.2092 120.161 38.191C120.137 38.1726 120.121 38.1461 120.115 38.1165C120.113 38.1108 120.111 38.1049 120.109 38.099C120.098 38.0706 120.087 38.0419 120.061 38.0419C120.051 38.0419 120.041 38.0437 120.03 38.0457C120.007 38.0499 119.981 38.0547 119.947 38.0419C119.897 38.0232 119.897 37.972 119.897 37.9347C119.881 37.8948 119.858 37.8583 119.828 37.8276C119.802 37.7954 119.78 37.7593 119.764 37.7204C119.76 37.6724 119.76 37.624 119.764 37.576V37.4502C119.754 37.4233 119.754 37.3932 119.764 37.3664C119.788 37.3487 119.814 37.3345 119.842 37.3244L119.915 37.2825C119.942 37.2768 119.968 37.2674 119.992 37.2545C120.003 37.2485 120.011 37.2396 120.017 37.2289C120.022 37.2182 120.025 37.206 120.024 37.1939C120.014 37.1664 120.005 37.1385 119.997 37.1101C119.987 37.0767 119.987 37.041 119.997 37.0076C120.004 36.9971 120.013 36.9889 120.025 36.9839C120.036 36.979 120.049 36.9775 120.061 36.9796C120.085 36.9844 120.11 36.9844 120.134 36.9796V36.9191C120.129 36.8866 120.129 36.8537 120.134 36.8213C120.141 36.7958 120.157 36.7741 120.179 36.7607C120.21 36.7474 120.242 36.7379 120.275 36.7327C120.31 36.7256 120.345 36.7256 120.38 36.7327C120.405 36.7428 120.428 36.757 120.448 36.7747C120.462 36.7813 120.477 36.7847 120.492 36.7847C120.507 36.7847 120.521 36.7813 120.535 36.7747C120.55 36.765 120.563 36.7521 120.572 36.7368C120.582 36.7215 120.588 36.7042 120.59 36.6862C120.592 36.6688 120.584 36.6528 120.576 36.6367C120.569 36.6225 120.562 36.6083 120.562 36.593C120.556 36.5592 120.556 36.5244 120.562 36.4905C120.553 36.4586 120.553 36.4245 120.562 36.3926C120.584 36.3669 120.609 36.3436 120.635 36.3227C120.662 36.2993 120.683 36.2708 120.699 36.2389C120.71 36.2106 120.71 36.1787 120.699 36.1503C120.687 36.1236 120.677 36.0955 120.672 36.0665C120.677 36.0503 120.685 36.0354 120.696 36.0226C120.707 36.0098 120.72 35.9993 120.736 35.992C120.773 35.9777 120.81 35.9605 120.845 35.9407C120.857 35.9299 120.868 35.9149 120.877 35.9005C120.893 35.8778 120.907 35.8568 120.927 35.8568C120.958 35.8477 120.991 35.8477 121.023 35.8568H121.169C121.192 35.8537 121.213 35.842 121.228 35.8242C121.253 35.8098 121.258 35.7901 121.261 35.7771C121.263 35.7691 121.264 35.7637 121.269 35.7637H121.319C121.343 35.7679 121.368 35.7679 121.392 35.7637L121.456 35.731C121.464 35.731 121.473 35.7323 121.481 35.7334C121.495 35.7354 121.506 35.7369 121.506 35.731V35.6659C121.505 35.6442 121.504 35.6225 121.505 35.6009C121.505 35.5868 121.505 35.5728 121.506 35.5587C121.498 35.5361 121.498 35.5113 121.506 35.4888L121.561 35.4468C121.581 35.4278 121.595 35.4037 121.602 35.377C121.609 35.3447 121.609 35.3114 121.602 35.2791C121.605 35.2482 121.605 35.2169 121.602 35.186C121.596 35.1636 121.585 35.1428 121.57 35.1253C121.539 35.0844 121.505 35.0455 121.47 35.0089C121.448 34.9814 121.43 34.9782 121.414 34.9755C121.402 34.9736 121.392 34.9719 121.383 34.9624C121.37 34.949 121.357 34.9296 121.344 34.9102C121.334 34.8956 121.324 34.8811 121.315 34.8691C121.288 34.8458 121.257 34.8284 121.223 34.8179L121.114 34.7573C121.066 34.7381 121.02 34.7131 120.977 34.6828C120.949 34.6576 120.931 34.6228 120.927 34.5849C120.92 34.5533 120.911 34.5222 120.9 34.4918C120.893 34.4579 120.893 34.4231 120.9 34.3893C120.913 34.3544 120.933 34.3226 120.959 34.296C120.967 34.2844 120.971 34.2706 120.971 34.2565C120.971 34.2423 120.967 34.2285 120.959 34.2169C120.929 34.1861 120.903 34.1517 120.881 34.1144C120.871 34.0951 120.863 34.0738 120.856 34.0519C120.846 34.0262 120.837 33.9997 120.822 33.9746C120.792 33.93 120.757 33.8893 120.717 33.8535L120.622 33.737C120.583 33.6944 120.542 33.6539 120.498 33.6158C120.444 33.558 120.392 33.4974 120.343 33.4342C120.284 33.3643 120.216 33.2758 120.166 33.2106C120.137 33.1739 120.112 33.1446 120.089 33.1177C120.071 33.0967 120.054 33.0772 120.038 33.0568C120.001 33.0108 119.969 32.9608 119.942 32.9077C119.923 32.8712 119.9 32.8369 119.874 32.8052C119.851 32.7899 119.824 32.7818 119.796 32.7819C119.756 32.7754 119.716 32.7645 119.678 32.7493C119.646 32.7416 119.618 32.7215 119.6 32.6934C119.595 32.6547 119.595 32.6155 119.6 32.5769C119.588 32.5368 119.573 32.4979 119.555 32.4604C119.541 32.4193 119.518 32.3824 119.486 32.3533C119.449 32.3322 119.409 32.3164 119.368 32.3066C119.326 32.2879 119.286 32.2645 119.249 32.2368C119.218 32.212 119.192 32.1821 119.172 32.1483C119.14 32.1157 119.14 32.0784 119.14 32.0505C119.127 32.0238 119.106 32.0023 119.08 31.9899C119.067 31.9839 119.053 31.9809 119.039 31.9809C119.025 31.9809 119.011 31.9839 118.998 31.9899H118.898C118.865 31.9912 118.833 31.9814 118.807 31.9619C118.784 31.9412 118.765 31.9159 118.752 31.8874C118.747 31.8774 118.74 31.8679 118.733 31.8585C118.72 31.8415 118.706 31.8245 118.706 31.8035C118.688 31.7729 118.672 31.74 118.661 31.7057C118.657 31.6953 118.654 31.6827 118.65 31.67C118.641 31.6371 118.632 31.6031 118.615 31.6031C118.607 31.5943 118.597 31.5875 118.586 31.5834C118.575 31.5794 118.563 31.5782 118.551 31.5799H118.492L118.419 31.5566C118.388 31.5501 118.357 31.5407 118.328 31.5286C118.298 31.5149 118.272 31.4922 118.255 31.4634C118.236 31.4325 118.223 31.3975 118.218 31.361C118.218 31.3478 118.22 31.3322 118.222 31.3176C118.225 31.2911 118.227 31.2677 118.218 31.2677H118.155C118.129 31.2744 118.103 31.2744 118.077 31.2677C118.037 31.2591 117.998 31.2434 117.963 31.2212C117.934 31.1946 117.904 31.1697 117.872 31.1466C117.836 31.1187 117.79 31.1187 117.754 31.1187H117.753C117.717 31.1001 117.683 31.0765 117.653 31.0487C117.638 31.0369 117.62 31.0259 117.601 31.0146C117.576 30.9993 117.551 30.9837 117.53 30.9649C117.494 30.9346 117.461 30.9019 117.43 30.8671C117.402 30.8427 117.371 30.8222 117.338 30.8065C117.301 30.7886 117.261 30.7761 117.22 30.7693C117.176 30.765 117.132 30.765 117.088 30.7693H116.987C116.965 30.7761 116.941 30.7761 116.919 30.7693C116.894 30.7564 116.868 30.7455 116.841 30.7366H116.778C116.757 30.7428 116.735 30.7428 116.714 30.7366L116.645 30.6993L116.554 30.6713C116.52 30.6655 116.488 30.6493 116.463 30.6248C116.444 30.6045 116.433 30.5782 116.431 30.5503C116.428 30.5237 116.418 30.4981 116.404 30.4757C116.383 30.4532 116.36 30.433 116.335 30.4152C116.308 30.3963 116.286 30.3706 116.271 30.3406C116.265 30.3131 116.265 30.2842 116.271 30.2567C116.281 30.2153 116.281 30.1723 116.271 30.1309C116.249 30.1003 116.219 30.0763 116.185 30.0611L116.098 29.9865C116.064 29.9562 116.023 29.934 115.98 29.9213C115.916 29.8962 115.851 29.8774 115.784 29.8653C115.743 29.8616 115.704 29.8539 115.665 29.8421L115.551 29.7815C115.514 29.7588 115.474 29.7416 115.432 29.7303C115.388 29.7145 115.342 29.7036 115.296 29.6977H115.154C115.115 29.6937 115.076 29.6826 115.04 29.665C115.03 29.657 115.022 29.6446 115.015 29.6331C115.005 29.618 114.996 29.6045 114.986 29.6045H114.908C114.871 29.6135 114.832 29.6135 114.794 29.6045C114.758 29.5995 114.723 29.5901 114.689 29.5765C114.647 29.5801 114.604 29.5801 114.562 29.5765C114.505 29.5652 114.45 29.548 114.397 29.5252L114.252 29.4694C114.193 29.4567 114.135 29.4395 114.078 29.4181C114.035 29.4023 113.979 29.3777 113.925 29.3534C113.882 29.3345 113.84 29.3159 113.805 29.3016L113.631 29.2411C113.598 29.2218 113.568 29.1982 113.54 29.1711C113.518 29.1486 113.492 29.1312 113.463 29.12C113.45 29.1168 113.436 29.1178 113.424 29.1228C113.412 29.1278 113.401 29.1366 113.394 29.1479C113.358 29.1712 113.358 29.2224 113.358 29.2224C113.349 29.2273 113.338 29.2298 113.328 29.2298C113.318 29.2298 113.308 29.2273 113.299 29.2224C113.275 29.2314 113.249 29.2314 113.226 29.2224C113.214 29.2167 113.203 29.207 113.192 29.1976C113.176 29.1841 113.161 29.1711 113.148 29.1711C113.129 29.1664 113.108 29.1664 113.089 29.1711C113.057 29.1781 113.025 29.1781 112.993 29.1711C112.964 29.1574 112.94 29.1346 112.925 29.106C112.92 29.0994 112.915 29.0923 112.909 29.0847C112.891 29.0604 112.87 29.032 112.87 29.0035C112.851 28.9713 112.828 28.9416 112.801 28.915C112.779 28.8961 112.752 28.8833 112.724 28.8777L112.633 28.8544C112.622 28.8522 112.611 28.8472 112.603 28.8399C112.594 28.8326 112.587 28.8231 112.583 28.8124V28.7192C112.562 28.6879 112.531 28.6649 112.496 28.6541C112.457 28.6421 112.418 28.6327 112.377 28.6261L112.277 28.5888C112.227 28.5655 112.227 28.5656 112.227 28.5656C112.221 28.5395 112.221 28.5124 112.227 28.4863V28.3931C112.229 28.3668 112.229 28.3403 112.227 28.314C112.221 28.2918 112.208 28.2722 112.19 28.258C112.165 28.2409 112.138 28.2284 112.108 28.2208C112.081 28.2186 112.054 28.2186 112.026 28.2208C112.004 28.2265 111.98 28.2265 111.958 28.2208C111.95 28.2165 111.944 28.2103 111.939 28.2031C111.935 28.1958 111.932 28.1875 111.931 28.1788V28.095L111.903 28.0111C111.908 27.9896 111.908 27.9673 111.903 27.9459C111.877 27.9269 111.872 27.9265 111.871 27.9244C111.871 27.924 111.871 27.9234 111.871 27.9226V27.8806C111.876 27.8591 111.876 27.8369 111.871 27.8154C111.875 27.7845 111.875 27.7532 111.871 27.7223C111.867 27.6929 111.867 27.6631 111.871 27.6338C111.876 27.5965 111.894 27.5965 111.912 27.5965H111.967C111.984 27.579 111.998 27.5584 112.008 27.5358C112.021 27.514 112.038 27.495 112.058 27.48C112.08 27.4671 112.1 27.4514 112.118 27.4333C112.124 27.4106 112.124 27.3863 112.118 27.3635C112.113 27.3342 112.113 27.3043 112.118 27.275C112.129 27.2484 112.146 27.2245 112.168 27.2051C112.181 27.2008 112.195 27.2008 112.209 27.2051C112.232 27.206 112.255 27.1976 112.273 27.1817C112.292 27.1594 112.304 27.132 112.309 27.1026V27.0327C112.313 27.0122 112.324 26.9938 112.341 26.9814C112.347 26.9814 112.353 26.982 112.36 26.9825C112.371 26.9835 112.382 26.9845 112.391 26.9814C112.397 26.9794 112.4 26.9747 112.405 26.9689C112.41 26.9614 112.417 26.952 112.432 26.9441C112.438 26.9412 112.444 26.9382 112.451 26.9352C112.475 26.924 112.501 26.9123 112.501 26.8976C112.501 26.879 112.459 26.851 112.418 26.851C112.387 26.8458 112.356 26.8365 112.327 26.8231C112.315 26.8127 112.305 26.7993 112.294 26.7854C112.286 26.7746 112.278 26.7634 112.268 26.7532C112.247 26.7249 112.223 26.6998 112.195 26.6787C112.155 26.6521 112.117 26.6226 112.081 26.5902C112.057 26.5657 112.037 26.5373 112.022 26.5062L111.972 26.427C111.958 26.4024 111.943 26.3791 111.926 26.3572L111.89 26.3059C111.885 26.3018 111.881 26.2969 111.877 26.2919C111.862 26.2743 111.846 26.2546 111.821 26.2546C111.794 26.2493 111.766 26.2493 111.739 26.2546V26.2267V26.1568V26.0916C111.746 26.0704 111.746 26.0475 111.739 26.0263C111.738 26.0147 111.734 26.0037 111.727 25.994C111.721 25.9843 111.713 25.9762 111.703 25.9705C111.673 25.9629 111.644 25.9519 111.616 25.9378C111.576 25.9147 111.541 25.8848 111.511 25.8493C111.47 25.8214 111.47 25.812 111.47 25.7887C111.462 25.7614 111.462 25.7322 111.47 25.7049C111.482 25.6715 111.495 25.6388 111.511 25.6071C111.526 25.5807 111.539 25.5526 111.548 25.5232C111.52 25.5139 111.493 25.4997 111.47 25.4813C111.435 25.4544 111.406 25.4212 111.383 25.3834C111.364 25.3528 111.353 25.3174 111.351 25.281C111.356 25.2454 111.356 25.2094 111.351 25.1738C111.343 25.1419 111.329 25.1118 111.31 25.0852C111.297 25.0636 111.278 25.046 111.256 25.034C111.233 25.0058 111.203 24.9847 111.169 24.9734C111.128 24.9734 111.088 24.9864 111.055 25.0107C111.048 25.0154 111.04 25.0206 111.032 25.026C111.001 25.0475 110.966 25.0713 110.937 25.0713C110.901 25.0855 110.865 25.0948 110.827 25.0992C110.78 25.1041 110.733 25.1041 110.686 25.0992H110.608C110.58 25.0854 110.554 25.0683 110.531 25.048C110.526 25.0433 110.522 25.0392 110.518 25.0351C110.505 25.0232 110.493 25.0118 110.476 24.9874C110.453 24.9548 110.417 24.9548 110.376 24.9548H110.376C110.334 24.9321 110.297 24.9021 110.266 24.8662L110.193 24.7964L110.088 24.7451C110.06 24.7293 110.038 24.7049 110.025 24.6753C110.015 24.6471 110.001 24.6204 109.984 24.5961C109.956 24.5681 109.915 24.5308 109.888 24.5308C109.86 24.5028 109.835 24.4716 109.815 24.4377C109.782 24.3989 109.744 24.3658 109.701 24.3398C109.664 24.3208 109.624 24.3082 109.582 24.3025C109.551 24.2981 109.518 24.2981 109.486 24.3025H109.391C109.367 24.3085 109.342 24.3085 109.318 24.3025V24.2467C109.327 24.2251 109.341 24.206 109.359 24.1907L109.418 24.1442C109.43 24.1255 109.439 24.105 109.445 24.0836C109.473 24.0556 109.445 24.0556 109.445 24.0556C109.415 24.0502 109.386 24.0392 109.359 24.0231L109.227 23.9344C109.186 23.9125 109.148 23.886 109.113 23.8553C109.09 23.8251 109.074 23.79 109.067 23.7528C109.044 23.7288 109.041 23.7067 109.038 23.6853C109.037 23.6735 109.035 23.6619 109.031 23.6503C109.029 23.6467 109.027 23.643 109.026 23.6392C109.014 23.6089 109 23.5757 108.976 23.5757H108.88C108.847 23.5641 108.816 23.5469 108.789 23.5245C108.753 23.5058 108.715 23.4932 108.675 23.4872C108.646 23.4935 108.617 23.4935 108.588 23.4872C108.552 23.4732 108.552 23.422 108.552 23.422C108.542 23.3932 108.529 23.3651 108.515 23.3381C108.506 23.3059 108.49 23.2759 108.47 23.2496C108.452 23.2287 108.43 23.2114 108.406 23.1984C108.386 23.1848 108.365 23.1738 108.342 23.1658C108.309 23.1606 108.275 23.1606 108.242 23.1658H108.132H108.027C107.998 23.1694 107.971 23.1789 107.945 23.1937C107.923 23.2104 107.898 23.2244 107.872 23.2356C107.84 23.2473 107.805 23.2473 107.772 23.2356C107.737 23.221 107.705 23.2006 107.676 23.1751C107.651 23.1569 107.621 23.1471 107.59 23.1471H107.489C107.466 23.1541 107.44 23.1541 107.416 23.1471C107.39 23.1377 107.367 23.1217 107.348 23.1005C107.328 23.0749 107.305 23.0515 107.28 23.0306C107.249 23.009 107.215 22.9918 107.179 22.9794C107.151 22.9672 107.127 22.9459 107.111 22.9188C107.098 22.8905 107.089 22.8608 107.084 22.8303C107.077 22.7964 107.066 22.7636 107.052 22.7325C107.037 22.7065 107.02 22.6815 107.001 22.6579H106.974C106.959 22.6796 106.947 22.7031 106.938 22.7278C106.933 22.7556 106.933 22.7839 106.938 22.8117C106.935 22.8427 106.935 22.8738 106.938 22.9048C106.933 22.9326 106.933 22.9609 106.938 22.9887C106.951 23.0151 106.96 23.0434 106.965 23.0726C106.963 23.1113 106.946 23.1478 106.919 23.1751C106.892 23.2038 106.868 23.235 106.846 23.2682C106.835 23.2998 106.835 23.3345 106.846 23.3661V23.4453C106.861 23.4786 106.873 23.5129 106.883 23.5478C106.878 23.5896 106.878 23.6318 106.883 23.6736C106.893 23.7118 106.911 23.747 106.938 23.7761C106.964 23.8008 106.993 23.8226 107.024 23.8413L107.102 23.8739C107.132 23.8695 107.163 23.8695 107.193 23.8739C107.206 23.8811 107.217 23.8911 107.226 23.9032C107.234 23.9152 107.24 23.9291 107.243 23.9438C107.248 23.9777 107.248 24.0123 107.243 24.0463C107.238 24.0912 107.238 24.1365 107.243 24.1814C107.259 24.2176 107.286 24.2472 107.321 24.2652L107.43 24.3445C107.467 24.3721 107.499 24.405 107.526 24.4423L107.608 24.5401C107.641 24.5752 107.676 24.6079 107.713 24.638L107.795 24.6893C107.826 24.7051 107.856 24.7254 107.881 24.7498C107.886 24.7551 107.891 24.7607 107.896 24.7665C107.913 24.786 107.932 24.8075 107.932 24.829C107.964 24.859 108.003 24.8798 108.046 24.8896C108.079 24.8943 108.113 24.8943 108.146 24.8896C108.171 24.8953 108.194 24.9102 108.21 24.9315C108.227 24.9528 108.245 24.9729 108.264 24.992C108.275 24.9978 108.287 25.0008 108.299 25.0008C108.311 25.0008 108.322 24.9978 108.333 24.992C108.352 24.9782 108.372 24.9658 108.392 24.9548C108.433 24.9375 108.476 24.9279 108.52 24.9269C108.557 24.9255 108.594 24.937 108.625 24.9595C108.649 24.9791 108.665 25.0073 108.67 25.0387C108.679 25.0785 108.694 25.1164 108.716 25.1505C108.742 25.1826 108.777 25.2053 108.816 25.2157C108.859 25.2205 108.901 25.2205 108.944 25.2157H108.962C109 25.2096 109.038 25.2096 109.076 25.2157L109.227 25.253C109.271 25.2633 109.312 25.2858 109.345 25.3181C109.381 25.3614 109.408 25.4123 109.423 25.4673C109.434 25.502 109.434 25.5397 109.423 25.5744L109.386 25.649C109.382 25.6601 109.379 25.6719 109.379 25.684C109.379 25.696 109.382 25.7078 109.386 25.7189C109.406 25.7367 109.429 25.7495 109.455 25.7562C109.474 25.7657 109.488 25.7823 109.496 25.8027C109.501 25.8289 109.501 25.8558 109.496 25.882C109.493 25.8969 109.488 25.9111 109.48 25.924C109.475 25.9323 109.469 25.94 109.462 25.9466C109.458 25.9502 109.454 25.9535 109.45 25.9565C109.438 25.9653 109.423 25.9747 109.408 25.9846C109.383 26.0008 109.356 26.0182 109.336 26.0357C109.322 26.0467 109.311 26.0609 109.303 26.0771C109.295 26.0932 109.291 26.1108 109.29 26.1288C109.281 26.1559 109.281 26.1857 109.29 26.2128C109.3 26.2185 109.311 26.2215 109.322 26.2215C109.334 26.2215 109.345 26.2185 109.354 26.2128L109.45 26.1801L109.591 26.1521L109.76 26.1243C109.796 26.1144 109.834 26.1144 109.87 26.1243C109.9 26.1316 109.928 26.1497 109.947 26.1754C109.955 26.1913 109.959 26.2089 109.959 26.2267C109.959 26.2446 109.955 26.2621 109.947 26.2779C109.943 26.2952 109.936 26.3115 109.926 26.3259C109.915 26.3403 109.903 26.3524 109.888 26.3618C109.859 26.3682 109.83 26.3682 109.801 26.3618H109.737C109.704 26.3567 109.67 26.3567 109.637 26.3618C109.605 26.3757 109.605 26.3944 109.605 26.427C109.601 26.4587 109.59 26.489 109.573 26.5155C109.565 26.5277 109.554 26.5376 109.542 26.5441C109.529 26.5506 109.514 26.5537 109.5 26.5529C109.468 26.5573 109.436 26.5573 109.404 26.5529C109.379 26.5481 109.353 26.5481 109.327 26.5529V26.5947C109.329 26.6211 109.329 26.6476 109.327 26.674C109.33 26.7019 109.33 26.73 109.327 26.7578C109.316 26.7856 109.302 26.8121 109.286 26.837C109.27 26.8564 109.252 26.8737 109.231 26.8883C109.209 26.8979 109.189 26.9122 109.172 26.9303C109.167 26.9564 109.167 26.9833 109.172 27.0094C109.175 27.0459 109.166 27.0823 109.145 27.1119C109.112 27.124 109.077 27.124 109.044 27.1119C109.013 27.1076 108.982 27.0981 108.953 27.0839L108.857 27.0374C108.827 27.0203 108.795 27.0063 108.761 26.9954C108.736 26.9885 108.709 26.9885 108.684 26.9954H108.602C108.592 27.0004 108.584 27.0077 108.578 27.0166C108.573 27.0229 108.57 27.0298 108.568 27.0372C108.567 27.0403 108.566 27.0435 108.565 27.0467C108.56 27.06 108.557 27.0742 108.557 27.0886C108.557 27.103 108.56 27.1173 108.565 27.1306C108.584 27.1569 108.607 27.1791 108.634 27.1957C108.655 27.2131 108.673 27.2355 108.684 27.261C108.689 27.2934 108.689 27.3264 108.684 27.3588C108.692 27.3878 108.692 27.4184 108.684 27.4473C108.662 27.4692 108.636 27.4853 108.606 27.494L108.502 27.5358H108.383H108.296C108.292 27.5359 108.288 27.5365 108.285 27.5377C108.281 27.5388 108.278 27.5403 108.275 27.5422C108.269 27.5463 108.263 27.5522 108.26 27.5592L108.214 27.6151L108.16 27.6756C108.144 27.6933 108.131 27.7139 108.123 27.7363L108.091 27.8154C108.079 27.8388 108.069 27.8638 108.064 27.8899C108.057 27.9283 108.047 27.9658 108.032 28.0017C108.018 28.0324 107.998 28.0595 107.973 28.081C107.953 28.1046 107.942 28.1341 107.941 28.1648C107.938 28.2083 107.938 28.2519 107.941 28.2953C107.942 28.3159 107.937 28.3364 107.928 28.3545C107.918 28.3725 107.904 28.3875 107.886 28.3978C107.837 28.4244 107.782 28.4373 107.726 28.4351C107.685 28.4289 107.644 28.4147 107.608 28.3931L107.503 28.3418C107.489 28.3358 107.476 28.3263 107.467 28.3141C107.457 28.3019 107.451 28.2874 107.448 28.272C107.439 28.2243 107.439 28.1752 107.448 28.1275V27.9785C107.453 27.9682 107.455 27.9571 107.455 27.9459C107.455 27.9347 107.453 27.9236 107.448 27.9132L107.38 27.8387L107.302 27.7549L107.184 27.671C107.157 27.6528 107.132 27.6309 107.111 27.6058C107.086 27.5802 107.066 27.5502 107.052 27.5173L107.024 27.424C107.01 27.3937 106.991 27.3655 106.97 27.3402C106.948 27.3102 106.931 27.2773 106.919 27.2424C106.905 27.1993 106.889 27.1573 106.869 27.1166C106.852 27.0873 106.83 27.0606 106.805 27.0374C106.773 27.0046 106.744 26.9687 106.719 26.9303C106.697 26.8916 106.672 26.8543 106.646 26.8184C106.623 26.7894 106.593 26.7668 106.559 26.7532C106.529 26.7427 106.499 26.7348 106.468 26.7298C106.423 26.7195 106.382 26.697 106.349 26.6647C106.317 26.6217 106.298 26.5697 106.295 26.5155V26.3386C106.292 26.3245 106.284 26.3119 106.274 26.3026C106.263 26.2933 106.249 26.288 106.235 26.2873C106.206 26.2788 106.179 26.2662 106.153 26.2499C106.129 26.2254 106.109 26.1971 106.094 26.1661C106.075 26.1287 106.048 26.0955 106.016 26.0683C105.984 26.0548 105.948 26.0548 105.916 26.0683H105.83C105.79 26.0729 105.75 26.0729 105.711 26.0683C105.698 26.0696 105.685 26.0667 105.673 26.06C105.662 26.0533 105.653 26.0432 105.647 26.031L105.561 25.9378C105.533 25.9072 105.501 25.882 105.465 25.8633C105.429 25.8522 105.391 25.8522 105.355 25.8633C105.316 25.8607 105.276 25.8607 105.237 25.8633C105.207 25.8679 105.176 25.8679 105.146 25.8633C105.114 25.8704 105.081 25.8704 105.05 25.8633C105.023 25.8526 105 25.8328 104.986 25.8074C104.981 25.7926 104.974 25.7781 104.968 25.7639C104.963 25.755 104.959 25.7462 104.954 25.7375C104.948 25.7285 104.94 25.7209 104.93 25.7152C104.921 25.7096 104.91 25.7061 104.899 25.7049H104.84L104.767 25.7282L104.712 25.7562C104.687 25.7728 104.656 25.7808 104.626 25.7794C104.594 25.7868 104.562 25.7868 104.53 25.7794C104.507 25.769 104.486 25.7531 104.471 25.7329C104.453 25.7141 104.439 25.6919 104.43 25.6676C104.393 25.6489 104.393 25.6164 104.393 25.6164H104.316C104.289 25.6143 104.262 25.6064 104.238 25.5931C104.22 25.5799 104.203 25.5642 104.188 25.5464C104.176 25.5309 104.16 25.5183 104.142 25.5092H104.111L104.038 25.5511C104.017 25.56 103.997 25.5709 103.978 25.5837H103.905H103.787H103.691C103.655 25.5872 103.618 25.5872 103.582 25.5837C103.54 25.565 103.5 25.5416 103.463 25.5139C103.43 25.4836 103.391 25.4598 103.349 25.444C103.299 25.4207 103.236 25.4207 103.194 25.4207H103.194C103.155 25.4069 103.121 25.3828 103.094 25.3508C103.072 25.3186 103.044 25.2916 103.012 25.2716C102.98 25.2631 102.947 25.2631 102.916 25.2716H102.847C102.817 25.2763 102.787 25.2763 102.756 25.2716C102.72 25.2623 102.72 25.2436 102.72 25.2203C102.72 25.2097 102.726 25.2 102.734 25.1895C102.742 25.1771 102.752 25.1635 102.752 25.1458C102.759 25.1058 102.759 25.0647 102.752 25.0247C102.72 24.9688 102.72 24.8896 102.72 24.8337C102.713 24.7874 102.713 24.7402 102.72 24.6939C102.728 24.6603 102.728 24.6251 102.72 24.5914C102.689 24.5446 102.654 24.5009 102.615 24.461C102.588 24.4292 102.559 24.3996 102.528 24.3725L102.414 24.2652L102.296 24.1627L102.218 24.0789L102.141 23.9718C102.112 23.9282 102.087 23.8831 102.063 23.8366V23.7201C102.049 23.6807 102.024 23.6465 101.99 23.6223C101.966 23.601 101.937 23.5796 101.909 23.5596C101.894 23.549 101.88 23.5388 101.867 23.5292C101.84 23.5087 101.818 23.4814 101.803 23.4499L101.767 23.3381C101.761 23.3203 101.756 23.3017 101.751 23.2822C101.744 23.2558 101.736 23.2279 101.726 23.1984C101.721 23.1856 101.716 23.1727 101.711 23.1599C101.696 23.1215 101.68 23.083 101.68 23.0446V22.9188C101.672 22.8893 101.66 22.8611 101.644 22.835C101.62 22.7992 101.594 22.765 101.566 22.7325L101.47 22.63C101.449 22.6079 101.43 22.5845 101.411 22.5601C101.389 22.5289 101.372 22.4943 101.361 22.4576C101.356 22.4236 101.356 22.3891 101.361 22.3551C101.356 22.3164 101.356 22.2773 101.361 22.2386C101.366 22.2205 101.375 22.2039 101.383 22.1895C101.39 22.1779 101.395 22.1677 101.397 22.1595C101.402 22.1408 101.37 22.1128 101.37 22.1128L101.283 22.0708C101.262 22.0574 101.244 22.0401 101.229 22.0197C101.21 21.9954 101.199 21.9662 101.197 21.9357C101.189 21.8848 101.189 21.833 101.197 21.782C101.211 21.7541 101.21 21.7261 101.21 21.7011C101.21 21.676 101.21 21.6539 101.224 21.6376C101.252 21.605 101.252 21.5771 101.252 21.5771C101.273 21.5569 101.297 21.541 101.325 21.5304C101.341 21.5167 101.357 21.5143 101.367 21.5127C101.375 21.5116 101.379 21.511 101.379 21.5071V21.4559C101.377 21.4296 101.377 21.403 101.379 21.3767C101.384 21.3395 101.384 21.302 101.379 21.2649C101.37 21.2089 101.325 21.209 101.325 21.209C101.302 21.1984 101.285 21.1802 101.274 21.1577C101.262 21.1344 101.244 21.1139 101.224 21.0972C101.191 21.0923 101.157 21.0923 101.124 21.0972C101.111 21.0952 101.099 21.0898 101.088 21.0816C101.078 21.0735 101.07 21.0628 101.065 21.0506V20.9481C101.101 20.929 101.142 20.9193 101.183 20.9201C101.214 20.9165 101.242 20.9036 101.265 20.8829C101.298 20.8617 101.328 20.8349 101.352 20.8036C101.377 20.7678 101.397 20.7286 101.411 20.6871C101.413 20.6704 101.419 20.6543 101.427 20.6398C101.436 20.6254 101.448 20.6129 101.461 20.6033C101.496 20.5931 101.532 20.5931 101.566 20.6033H101.662C101.686 20.6108 101.711 20.6108 101.735 20.6033C101.745 20.5994 101.753 20.5923 101.759 20.5831C101.765 20.5738 101.768 20.5629 101.767 20.552C101.771 20.5164 101.771 20.4804 101.767 20.4449C101.757 20.4067 101.757 20.3666 101.767 20.3284C101.776 20.2911 101.817 20.2912 101.817 20.2912C101.836 20.2713 101.853 20.2494 101.867 20.2259C101.884 20.2036 101.896 20.1784 101.904 20.1514V20.0676C101.916 20.0483 101.926 20.028 101.936 20.0069C101.931 19.979 101.904 19.979 101.881 19.979C101.856 19.9776 101.833 19.9695 101.812 19.9556C101.798 19.9339 101.785 19.9105 101.776 19.8858C101.761 19.8603 101.742 19.8369 101.721 19.816C101.71 19.8066 101.7 19.7945 101.694 19.7807C101.687 19.767 101.684 19.7519 101.685 19.7367C101.687 19.7274 101.692 19.7167 101.698 19.705C101.707 19.6874 101.717 19.6678 101.717 19.6482C101.717 19.6339 101.709 19.6214 101.7 19.608C101.689 19.5907 101.678 19.5719 101.68 19.5457C101.683 19.5187 101.699 19.5167 101.719 19.5144C101.733 19.5127 101.749 19.5108 101.762 19.4991C101.779 19.484 101.798 19.4825 101.811 19.4814C101.823 19.4805 101.831 19.4798 101.831 19.4712V19.4059C101.839 19.3967 101.85 19.3897 101.862 19.3857C101.874 19.3816 101.887 19.3805 101.899 19.3826C101.924 19.3912 101.947 19.4038 101.967 19.4199C101.988 19.4274 102.011 19.4274 102.031 19.4199C102.068 19.4062 102.106 19.3968 102.145 19.3919C102.173 19.383 102.204 19.383 102.232 19.3919C102.26 19.4062 102.291 19.4142 102.323 19.4152C102.336 19.413 102.346 19.3999 102.356 19.387C102.367 19.3731 102.377 19.3594 102.391 19.3594C102.423 19.3372 102.459 19.3228 102.496 19.3174C102.542 19.3128 102.588 19.3128 102.633 19.3174C102.668 19.3232 102.703 19.3232 102.738 19.3174V19.2568C102.74 19.2258 102.74 19.1947 102.738 19.1636C102.732 19.1345 102.732 19.1043 102.738 19.0751C102.738 19.0519 102.774 19.0238 102.774 19.0238L102.802 18.9913L102.843 18.9633C102.855 18.9467 102.869 18.931 102.884 18.9167C102.894 18.9121 102.905 18.9098 102.916 18.9098C102.927 18.9098 102.938 18.9121 102.948 18.9167C102.966 18.9323 102.986 18.9463 103.007 18.9587H103.075L103.167 18.926C103.178 18.9238 103.188 18.9189 103.197 18.9116C103.206 18.9043 103.212 18.8948 103.217 18.8842C103.23 18.8578 103.239 18.8294 103.244 18.8002C103.257 18.7731 103.267 18.7451 103.276 18.7164C103.283 18.692 103.283 18.6663 103.276 18.6419C103.262 18.5906 103.249 18.5906 103.221 18.5906C103.188 18.594 103.156 18.6034 103.126 18.6186L103.048 18.6652C103.027 18.6723 103.005 18.6723 102.984 18.6652C102.95 18.659 102.917 18.6446 102.888 18.6232C102.857 18.6046 102.857 18.5859 102.857 18.558V18.5579C102.838 18.5305 102.823 18.5008 102.811 18.4695C102.81 18.4576 102.812 18.4457 102.816 18.4345C102.82 18.4233 102.826 18.413 102.834 18.4043V18.3483L102.884 18.2878C102.909 18.2668 102.936 18.2494 102.966 18.2365C102.99 18.2327 103.015 18.2327 103.039 18.2365C103.065 18.2244 103.09 18.2088 103.112 18.19C103.132 18.1734 103.147 18.1504 103.153 18.1247C103.158 18.0985 103.158 18.0717 103.153 18.0455C103.157 18.0146 103.157 17.9833 103.153 17.9524C103.143 17.919 103.131 17.8864 103.116 17.8545C103.114 17.822 103.114 17.7892 103.116 17.7566C103.114 17.7256 103.114 17.6945 103.116 17.6635C103.127 17.6357 103.141 17.6091 103.158 17.5843C103.189 17.5563 103.189 17.5143 103.189 17.5143C103.202 17.4926 103.211 17.4691 103.217 17.4445C103.224 17.417 103.224 17.3882 103.217 17.3607C103.203 17.3341 103.186 17.309 103.167 17.2861C103.13 17.2628 103.13 17.2348 103.13 17.2069C103.123 17.1741 103.111 17.1427 103.094 17.1137C103.079 17.085 103.059 17.0597 103.034 17.0392C103.018 17.0219 102.998 17.0091 102.975 17.0019C102.952 17.0041 102.929 17.0041 102.907 17.0019L102.82 16.9506C102.783 16.9374 102.745 16.9282 102.706 16.9228C102.687 16.916 102.666 16.916 102.647 16.9228C102.627 16.9273 102.607 16.9273 102.588 16.9228C102.575 16.9116 102.565 16.8971 102.56 16.8808C102.55 16.8623 102.534 16.8476 102.515 16.8388C102.483 16.8224 102.449 16.8129 102.414 16.8108C102.402 16.8106 102.389 16.8131 102.377 16.8179C102.366 16.8227 102.355 16.8298 102.346 16.8388C102.329 16.8526 102.315 16.8702 102.305 16.8901C102.287 16.9126 102.268 16.9328 102.246 16.9506C102.229 16.9654 102.208 16.9737 102.186 16.9739H102.141L102.109 16.9413L102.05 16.8528C102.034 16.83 102.021 16.8049 102.013 16.7783C102.009 16.7584 102.009 16.7376 102.013 16.7177C102.009 16.6993 102.009 16.6802 102.013 16.6618C102.019 16.6389 102.019 16.6148 102.013 16.5919C102.013 16.5686 101.995 16.5407 101.949 16.5407H101.767C101.727 16.5379 101.688 16.5379 101.648 16.5407C101.615 16.5354 101.581 16.5354 101.548 16.5407C101.536 16.5465 101.523 16.5494 101.509 16.5494C101.496 16.5494 101.483 16.5465 101.47 16.5407C101.462 16.5356 101.453 16.5256 101.444 16.5149C101.427 16.4962 101.409 16.4754 101.388 16.4754C101.358 16.466 101.328 16.4583 101.297 16.4522C101.272 16.4387 101.25 16.4196 101.233 16.3962L101.179 16.3357C101.163 16.3206 101.149 16.3033 101.138 16.2844C101.123 16.2569 101.105 16.2318 101.083 16.2099H101.037L100.955 16.2424C100.927 16.2593 100.896 16.2689 100.864 16.2704C100.822 16.2672 100.781 16.2594 100.741 16.2471H100.659C100.643 16.238 100.632 16.223 100.627 16.2052C100.622 16.1975 100.62 16.1885 100.62 16.1795C100.62 16.1705 100.622 16.1617 100.627 16.1539C100.65 16.1411 100.671 16.1255 100.691 16.1074C100.718 16.0935 100.718 16.0608 100.718 16.0608C100.737 16.0406 100.76 16.026 100.786 16.0188C100.812 16.0143 100.838 16.0143 100.864 16.0188H100.946H101.037C101.064 16.0227 101.092 16.0227 101.119 16.0188C101.127 16.0168 101.132 16.0099 101.138 16.0025C101.145 15.9925 101.154 15.9816 101.169 15.9816C101.199 15.9761 101.228 15.9682 101.256 15.9583C101.267 15.9532 101.276 15.9443 101.281 15.9332C101.286 15.9221 101.287 15.9095 101.283 15.8977V15.8372C101.276 15.816 101.276 15.793 101.283 15.7719C101.288 15.7347 101.306 15.7347 101.329 15.7347H101.329H101.507C101.531 15.7326 101.556 15.7326 101.58 15.7347C101.61 15.7323 101.641 15.7323 101.671 15.7347C101.699 15.7254 101.73 15.7254 101.758 15.7347C101.783 15.7577 101.799 15.7891 101.803 15.8232C101.808 15.8541 101.808 15.8854 101.803 15.9163C101.803 15.9285 101.801 15.9413 101.8 15.9526C101.797 15.9716 101.795 15.9863 101.803 15.9863H101.858L101.913 16.0142C101.932 16.0301 101.956 16.0399 101.981 16.0421C101.999 16.0421 102.027 16.0282 102.027 15.991C102.035 15.9494 102.047 15.9088 102.063 15.8698C102.073 15.8547 102.086 15.8418 102.101 15.8322C102.115 15.8225 102.132 15.8163 102.15 15.8139H102.218C102.253 15.8112 102.288 15.8112 102.323 15.8139L102.474 15.8418C102.532 15.8569 102.591 15.8663 102.651 15.8698C102.72 15.8698 102.72 15.8558 102.72 15.8278C102.729 15.8006 102.729 15.7712 102.72 15.744C102.716 15.7177 102.716 15.691 102.72 15.6647C102.72 15.6528 102.723 15.641 102.729 15.6305C102.734 15.62 102.742 15.611 102.752 15.6042C102.769 15.5901 102.789 15.5819 102.811 15.5809C102.841 15.5737 102.869 15.5643 102.898 15.5529C102.901 15.5499 102.904 15.546 102.907 15.5415C102.909 15.5371 102.91 15.5323 102.91 15.5273C102.91 15.5224 102.909 15.5175 102.907 15.5131C102.904 15.5087 102.901 15.5048 102.898 15.5017C102.873 15.4866 102.847 15.4741 102.82 15.4644C102.794 15.4501 102.77 15.4328 102.747 15.4131L102.67 15.3619C102.648 15.3541 102.626 15.3447 102.606 15.334V15.2921C102.606 15.2865 102.607 15.2791 102.608 15.2711C102.612 15.2526 102.615 15.2305 102.606 15.2175C102.599 15.2085 102.583 15.2007 102.568 15.1934C102.552 15.1855 102.537 15.1782 102.537 15.171V15.1243C102.524 15.0973 102.506 15.0735 102.483 15.0545C102.456 15.0299 102.436 14.9973 102.428 14.9612C102.428 14.9333 102.478 14.8914 102.478 14.8914C102.497 14.8682 102.511 14.8412 102.519 14.8122C102.551 14.7889 102.551 14.7656 102.551 14.7656C102.575 14.7591 102.6 14.7591 102.624 14.7656C102.65 14.7805 102.671 14.8013 102.688 14.8262L102.761 14.924C102.779 14.9799 102.802 14.9799 102.802 14.9799C102.823 14.983 102.845 14.983 102.866 14.9799H102.939C102.967 14.982 102.996 14.982 103.025 14.9799H103.107C103.119 14.9799 103.128 14.9825 103.136 14.9848C103.149 14.9886 103.159 14.9916 103.176 14.9799C103.193 14.9681 103.189 14.949 103.183 14.9248C103.179 14.9106 103.176 14.8946 103.176 14.8774V14.7376V14.5466C103.188 14.4497 103.222 14.357 103.276 14.2764C103.302 14.2389 103.336 14.1985 103.368 14.1593C103.393 14.1302 103.416 14.1019 103.436 14.0761C103.477 14.027 103.511 13.972 103.536 13.9129C103.558 13.8599 103.584 13.8086 103.614 13.7593C103.649 13.7077 103.692 13.6621 103.741 13.6241C103.779 13.5971 103.823 13.581 103.869 13.5775C103.913 13.58 103.955 13.5945 103.992 13.6195C104.034 13.6459 104.073 13.6755 104.111 13.708L104.234 13.8198C104.279 13.8592 104.321 13.9012 104.361 13.9456C104.396 13.9812 104.434 14.0249 104.466 14.0623C104.476 14.0739 104.485 14.0848 104.494 14.0947C104.522 14.1332 104.56 14.1637 104.603 14.1832C104.666 14.1976 104.73 14.2054 104.795 14.2065C104.873 14.2 104.953 14.2 105.032 14.2065C105.067 14.2122 105.103 14.2232 105.14 14.2343C105.194 14.2506 105.249 14.267 105.301 14.267C105.376 14.291 105.454 14.3067 105.533 14.3137H105.747C105.807 14.325 105.864 14.347 105.916 14.3788C105.987 14.4167 106.055 14.462 106.117 14.514C106.164 14.5625 106.203 14.6193 106.231 14.6817C106.263 14.7509 106.316 14.8079 106.381 14.8447C106.476 14.8805 106.573 14.9056 106.673 14.9194C106.742 14.9335 106.796 14.9502 106.877 14.9757C106.903 14.9839 106.932 14.993 106.965 15.0032L107 15.014C107.136 15.0557 107.323 15.1131 107.448 15.143C107.532 15.1694 107.621 15.1773 107.708 15.1663L107.941 15.129C108.015 15.1151 108.089 15.1057 108.164 15.101C108.249 15.0941 108.335 15.0941 108.42 15.101C108.495 15.1097 108.568 15.1285 108.638 15.157C108.688 15.1786 108.735 15.2051 108.78 15.2361C108.831 15.2778 108.888 15.3123 108.948 15.3386L109.254 15.4831C109.311 15.5108 109.364 15.5413 109.416 15.5715C109.46 15.5971 109.504 15.6226 109.55 15.6461C109.624 15.6839 109.703 15.7167 109.784 15.7499C109.812 15.7618 109.841 15.7737 109.87 15.7859L110.184 15.9117C110.248 15.9398 110.316 15.9587 110.385 15.9676C110.438 15.974 110.491 15.9659 110.54 15.9443C110.56 15.9361 110.579 15.9242 110.601 15.9108C110.629 15.8937 110.661 15.874 110.704 15.8558C110.736 15.8423 110.774 15.8295 110.813 15.8162C110.869 15.7975 110.927 15.7778 110.978 15.7533C111.052 15.7165 111.123 15.6711 111.187 15.6182C111.25 15.5762 111.316 15.5389 111.383 15.5064C111.4 15.4993 111.418 15.4919 111.436 15.4844C111.502 15.4573 111.575 15.4274 111.639 15.3946C111.707 15.356 111.781 15.3292 111.858 15.3153C111.931 15.3081 112.005 15.3262 112.067 15.3666C112.145 15.413 112.22 15.4644 112.291 15.5204L112.478 15.6601C112.524 15.6964 112.577 15.7233 112.633 15.7393C112.661 15.7477 112.693 15.7532 112.725 15.7589C112.764 15.7658 112.805 15.773 112.843 15.7859C112.917 15.8205 112.993 15.8502 113.071 15.8745C113.108 15.8846 113.152 15.8903 113.197 15.8963C113.256 15.9039 113.317 15.9119 113.371 15.9303C113.457 15.9709 113.538 16.0209 113.613 16.0794C113.64 16.0958 113.664 16.1086 113.689 16.1214C113.728 16.1415 113.766 16.1618 113.814 16.1959C113.859 16.2287 113.914 16.2758 113.968 16.3224C114.006 16.3553 114.044 16.3879 114.078 16.4149C114.133 16.4673 114.201 16.5028 114.274 16.5174C114.328 16.5243 114.382 16.5146 114.429 16.4894L114.593 16.4149L114.821 16.3264C114.881 16.2895 114.945 16.2627 115.013 16.2471C115.063 16.2424 115.086 16.2751 115.104 16.3217C115.11 16.336 115.115 16.3502 115.12 16.3647C115.132 16.3977 115.144 16.4319 115.163 16.4707C115.191 16.5309 115.227 16.5874 115.268 16.6385C115.284 16.6624 115.305 16.6821 115.329 16.6959C115.354 16.7097 115.382 16.7172 115.41 16.7177C115.496 16.7129 115.583 16.7129 115.67 16.7177C115.705 16.7272 115.727 16.7503 115.746 16.7705C115.764 16.7897 115.78 16.8063 115.802 16.8063C115.86 16.828 115.919 16.845 115.98 16.8575C116.049 16.8856 116.106 16.9364 116.144 17.0019C116.161 17.0319 116.172 17.0651 116.176 17.0996C116.18 17.1341 116.177 17.169 116.167 17.2022C116.146 17.2664 116.112 17.3253 116.066 17.3747C116.05 17.3937 116.033 17.4073 116.019 17.4186C115.999 17.435 115.984 17.4466 115.984 17.4632C115.984 17.4911 116.016 17.5144 116.062 17.547C116.11 17.5844 116.162 17.6171 116.217 17.6448C116.239 17.6542 116.261 17.6614 116.285 17.669C116.319 17.6802 116.358 17.6925 116.404 17.7148C116.486 17.7579 116.572 17.7952 116.659 17.8266C116.719 17.8391 116.781 17.8391 116.841 17.8266C116.883 17.8217 116.925 17.8316 116.96 17.8545L117.106 17.9477C117.158 17.9791 117.215 17.9996 117.275 18.0082C117.335 18.0311 117.401 18.0311 117.462 18.0082C117.494 17.9916 117.525 17.965 117.552 17.9423C117.57 17.9269 117.585 17.9133 117.598 17.9057C117.616 17.8955 117.628 17.9035 117.642 17.9128C117.653 17.9205 117.666 17.9291 117.685 17.9291C117.74 17.9333 117.795 17.9333 117.849 17.9291C117.907 17.9312 117.964 17.9488 118.013 17.9802C118.05 18.0035 118.077 18.0455 118.077 18.0967C118.089 18.1647 118.125 18.2261 118.177 18.2691C118.251 18.3097 118.327 18.3455 118.405 18.3763C118.429 18.3917 118.45 18.4122 118.466 18.4362C118.481 18.4603 118.492 18.4875 118.497 18.5161C118.52 18.5899 118.556 18.6592 118.602 18.7211C118.633 18.7537 118.679 18.7164 118.679 18.6744C118.694 18.6215 118.726 18.5754 118.77 18.5441C118.847 18.5017 118.934 18.4808 119.021 18.4834C119.078 18.4866 119.134 18.5026 119.185 18.5301C119.202 18.5352 119.22 18.5348 119.236 18.5289C119.252 18.5231 119.267 18.512 119.276 18.4974C119.288 18.4836 119.3 18.4655 119.314 18.4457C119.333 18.419 119.353 18.3891 119.377 18.3623C119.416 18.315 119.466 18.2782 119.523 18.2552C119.553 18.2422 119.588 18.2322 119.623 18.2218C119.652 18.2135 119.681 18.205 119.71 18.1946C119.737 18.1847 119.763 18.1721 119.793 18.1581C119.832 18.1394 119.878 18.118 119.938 18.0967C120.063 18.0559 120.191 18.0217 120.321 17.9942C120.42 17.975 120.518 17.947 120.612 17.9104C120.642 17.8973 120.664 17.878 120.683 17.8613C120.705 17.8423 120.723 17.8266 120.745 17.8266C120.793 17.8153 120.84 17.7997 120.886 17.7799C120.927 17.7466 120.958 17.701 120.973 17.6495C121.014 17.5982 121.014 17.547 121.014 17.4958C121.031 17.4383 121.042 17.3788 121.046 17.3187C121.043 17.245 121.051 17.1713 121.068 17.0997C121.102 17.0032 121.15 16.9121 121.21 16.8295C121.251 16.7643 121.278 16.7643 121.278 16.7643C121.293 16.7709 121.306 16.7824 121.315 16.7969L121.365 16.8668C121.387 16.8943 121.407 16.9239 121.424 16.9553C121.438 16.9817 121.451 17.0174 121.465 17.0577C121.473 17.0813 121.482 17.1065 121.492 17.1324L121.584 17.342C121.594 17.3635 121.606 17.3857 121.619 17.4077C121.649 17.4625 121.679 17.5165 121.679 17.5563C121.699 17.6009 121.713 17.6479 121.72 17.6961C121.722 17.7333 121.722 17.7707 121.72 17.8079V17.8591C121.703 17.8659 121.683 17.8659 121.666 17.8591V17.7986C121.67 17.7366 121.67 17.6743 121.666 17.6123C121.657 17.5564 121.625 17.5237 121.606 17.519C121.588 17.5143 121.556 17.5377 121.556 17.5656C121.537 17.5973 121.523 17.6319 121.515 17.6681C121.504 17.7013 121.504 17.7374 121.515 17.7706C121.519 17.7889 121.527 17.8072 121.534 17.8247C121.543 17.8474 121.552 17.8687 121.552 17.8871C121.557 17.898 121.559 17.9099 121.559 17.922C121.559 17.9341 121.557 17.9461 121.552 17.957C121.538 17.9774 121.519 17.9934 121.497 18.0036H121.415C121.388 18.0128 121.359 18.0128 121.333 18.0036C121.321 17.9938 121.311 17.98 121.301 17.9673C121.287 17.9495 121.275 17.9337 121.264 17.9337C121.253 17.9337 121.247 17.9473 121.24 17.9631C121.236 17.9736 121.231 17.985 121.223 17.9942C121.205 18.0175 121.155 18.0455 121.155 18.0455C121.151 18.0543 121.149 18.0639 121.149 18.0735C121.149 18.0831 121.151 18.0926 121.155 18.1014V18.1573C121.159 18.1757 121.159 18.1948 121.155 18.2132L121.128 18.2645C121.116 18.2745 121.106 18.2873 121.1 18.3018C121.103 18.3234 121.103 18.3453 121.1 18.367C121.085 18.3942 121.067 18.4193 121.046 18.4415H121.018L120.936 18.4089L120.813 18.353C120.771 18.3322 120.727 18.3181 120.681 18.3111C120.639 18.3035 120.595 18.3035 120.553 18.3111V18.3576C120.566 18.3837 120.583 18.4074 120.603 18.4276L120.704 18.5208C120.729 18.5589 120.76 18.5934 120.795 18.6232C120.808 18.6293 120.823 18.6323 120.838 18.6323C120.853 18.6323 120.868 18.6293 120.881 18.6232C120.938 18.629 120.994 18.629 121.05 18.6232C121.12 18.6064 121.186 18.5781 121.246 18.5394C121.26 18.5283 121.271 18.5141 121.279 18.498C121.287 18.4819 121.291 18.4642 121.292 18.4461C121.295 18.4185 121.302 18.3917 121.315 18.367C121.336 18.3402 121.36 18.3167 121.388 18.2971L121.483 18.2365C121.517 18.2223 121.552 18.2128 121.588 18.2085C121.601 18.2012 121.615 18.1974 121.629 18.1974C121.644 18.1974 121.658 18.2012 121.67 18.2085V18.2925C121.668 18.3297 121.668 18.367 121.67 18.4043C121.667 18.4415 121.667 18.4789 121.67 18.5161C121.679 18.5673 121.707 18.5673 121.707 18.5673C121.716 18.5695 121.727 18.5685 121.736 18.5643C121.742 18.5614 121.748 18.557 121.752 18.5515C121.754 18.5492 121.755 18.5467 121.757 18.5441C121.776 18.502 121.791 18.4583 121.802 18.4136C121.808 18.3909 121.817 18.3681 121.825 18.3463C121.837 18.3145 121.848 18.2847 121.848 18.2598C121.848 18.2438 121.847 18.2319 121.846 18.2217C121.844 18.2052 121.842 18.1933 121.848 18.176C121.857 18.148 121.885 18.148 121.885 18.148C121.915 18.1633 121.938 18.1901 121.948 18.2225C121.967 18.2598 121.98 18.3111 121.999 18.381C122.007 18.4147 122.02 18.4507 122.035 18.4898C122.05 18.5317 122.067 18.5773 122.081 18.6279C122.089 18.6568 122.097 18.6865 122.105 18.7174C122.125 18.7914 122.147 18.8728 122.176 18.968C122.204 19.0598 122.241 19.1581 122.274 19.2481C122.29 19.2907 122.305 19.3314 122.318 19.3687C122.352 19.4518 122.379 19.5374 122.4 19.6249C122.416 19.6812 122.416 19.741 122.4 19.7973C122.374 19.8641 122.345 19.9294 122.313 19.993V20.0629C122.339 20.1145 122.368 20.1642 122.4 20.2119C122.441 20.2668 122.48 20.3244 122.514 20.3843C122.539 20.4364 122.55 20.4942 122.546 20.552V20.771C122.552 20.828 122.569 20.8834 122.596 20.9341C122.627 21.0129 122.667 21.0879 122.714 21.1577C122.755 21.2047 122.799 21.2484 122.847 21.2882C122.903 21.3586 122.949 21.4371 122.984 21.5211C122.999 21.5536 123.015 21.5901 123.033 21.6277C123.077 21.725 123.125 21.83 123.161 21.8939C123.198 21.9497 123.243 22 123.294 22.043C123.323 22.0757 123.361 22.1232 123.399 22.1718C123.432 22.2133 123.465 22.2555 123.494 22.2898C123.538 22.3379 123.586 22.383 123.636 22.4249C123.667 22.4535 123.692 22.4884 123.709 22.5274C123.716 22.5654 123.727 22.6028 123.74 22.6392C123.765 22.6682 123.797 22.6906 123.832 22.7045C123.874 22.7237 123.913 22.7505 123.946 22.7837C123.98 22.8255 124.012 22.869 124.041 22.9142C124.056 22.9387 124.078 22.957 124.105 22.9655C124.149 22.9762 124.192 22.9918 124.233 23.012C124.272 23.032 124.306 23.0607 124.333 23.0959C124.361 23.1332 124.402 23.1937 124.402 23.1937C124.419 23.2105 124.442 23.2204 124.465 23.2216C124.496 23.2324 124.525 23.2465 124.552 23.2636C124.604 23.2913 124.653 23.3241 124.698 23.3614C124.732 23.3865 124.759 23.4202 124.775 23.4592C124.785 23.4755 124.791 23.4919 124.798 23.5082C124.805 23.5245 124.812 23.5409 124.821 23.5572C124.828 23.5698 124.84 23.5825 124.852 23.5952C124.871 23.6151 124.889 23.635 124.889 23.655L124.958 23.7575L125.031 23.8833L125.086 23.9811L125.159 24.0882C125.183 24.1245 125.203 24.1636 125.218 24.2047C125.225 24.2376 125.237 24.2691 125.254 24.2979C125.281 24.3078 125.31 24.3078 125.336 24.2979H125.432H125.523C125.556 24.3099 125.584 24.331 125.605 24.3585C125.616 24.3735 125.627 24.3917 125.637 24.41C125.653 24.4371 125.668 24.4649 125.687 24.4843C125.702 24.4996 125.718 24.5118 125.735 24.5248C125.755 24.5395 125.775 24.5552 125.797 24.5774C125.839 24.626 125.876 24.6791 125.906 24.7358L125.975 24.8337C125.996 24.867 126.021 24.8982 126.048 24.9269C126.071 24.9487 126.095 24.9689 126.121 24.9874C126.141 25.004 126.162 25.0196 126.184 25.034C126.217 25.0425 126.252 25.0425 126.285 25.034C126.309 25.028 126.33 25.013 126.344 24.992C126.351 24.9891 126.357 24.9876 126.365 24.9876C126.372 24.9876 126.379 24.9891 126.385 24.992C126.409 24.9866 126.434 24.9866 126.458 24.992C126.489 25.0013 126.517 25.0211 126.536 25.048C126.567 25.0807 126.591 25.1207 126.604 25.1645C126.611 25.2061 126.611 25.2486 126.604 25.2903C126.599 25.3258 126.599 25.3619 126.604 25.3974C126.615 25.4296 126.634 25.4584 126.659 25.4813C126.668 25.4922 126.681 25.5016 126.693 25.5108C126.713 25.5251 126.732 25.5387 126.732 25.5558C126.759 25.5864 126.782 25.6211 126.8 25.6584C126.812 25.6762 126.823 25.6966 126.834 25.7181C126.849 25.747 126.866 25.7779 126.887 25.8074C126.928 25.853 126.966 25.9012 127.001 25.9518C127.019 25.9899 127.032 26.0308 127.037 26.073C127.043 26.1091 127.06 26.1421 127.087 26.1661C127.124 26.195 127.158 26.2278 127.188 26.2639C127.203 26.2968 127.215 26.3311 127.224 26.3664C127.241 26.3977 127.261 26.4274 127.283 26.455C127.303 26.4808 127.32 26.5089 127.334 26.5389V26.6413C127.344 26.6828 127.361 26.7221 127.384 26.7578C127.402 26.7904 127.429 26.8231 127.461 26.8231C127.498 26.8468 127.532 26.8749 127.562 26.9069L127.657 27.0094L127.771 27.1212C127.797 27.1552 127.819 27.191 127.84 27.2284C127.873 27.3 127.913 27.3686 127.958 27.4333C127.991 27.4871 128.029 27.5371 128.072 27.5825C128.098 27.6155 128.129 27.6439 128.163 27.6663C128.187 27.6748 128.213 27.6748 128.236 27.6663C128.264 27.6712 128.291 27.6712 128.318 27.6663C128.34 27.6618 128.36 27.6523 128.378 27.6384L128.437 27.5965L128.501 27.5638H128.574C128.583 27.5632 128.592 27.5651 128.6 27.5692C128.608 27.5733 128.615 27.5794 128.619 27.5871C128.624 27.5956 128.627 27.6053 128.627 27.6151C128.627 27.6249 128.624 27.6345 128.619 27.643C128.611 27.6662 128.597 27.687 128.578 27.7036C128.574 27.7083 128.569 27.7127 128.563 27.717C128.548 27.7301 128.533 27.7432 128.533 27.7641C128.522 27.7926 128.522 27.8243 128.533 27.8527C128.546 27.8807 128.578 27.9039 128.578 27.9039C128.583 27.9254 128.583 27.9477 128.578 27.9692C128.571 28.0014 128.571 28.0348 128.578 28.067C128.591 28.1222 128.611 28.1754 128.638 28.2254C128.653 28.2527 128.67 28.2793 128.688 28.3046C128.703 28.3353 128.719 28.3648 128.738 28.3931H128.788C128.813 28.386 128.84 28.386 128.866 28.3931C128.896 28.4033 128.925 28.4174 128.952 28.4351C128.975 28.4503 129 28.4627 129.025 28.4723H129.094C129.112 28.4863 129.139 28.5189 129.139 28.5189C129.156 28.531 129.174 28.5404 129.194 28.5469L129.262 28.5888C129.288 28.5959 129.314 28.5959 129.34 28.5888H129.413C129.437 28.5865 129.462 28.5865 129.486 28.5888C129.513 28.5913 129.541 28.5913 129.568 28.5888H129.627V28.6307C129.627 28.6587 129.618 28.7006 129.627 28.7006H129.696C129.723 28.6957 129.75 28.6957 129.778 28.7006H129.987H130.092C130.121 28.6993 130.148 28.7093 130.17 28.7286C130.197 28.7566 130.216 28.7922 130.224 28.831C130.229 28.8504 130.237 28.8731 130.244 28.8966C130.259 28.9411 130.275 28.9886 130.275 29.0221C130.279 29.0399 130.289 29.0561 130.301 29.0691C130.314 29.0822 130.33 29.0917 130.348 29.0966C130.356 29.1017 130.366 29.1084 130.377 29.1155C130.405 29.1348 130.438 29.1572 130.462 29.1572C130.493 29.1751 130.522 29.1971 130.548 29.2224L130.648 29.283C130.679 29.2966 130.707 29.3156 130.731 29.3389C130.74 29.3478 130.747 29.3587 130.752 29.3708C130.757 29.3828 130.759 29.3958 130.758 29.4088C130.762 29.4475 130.762 29.4865 130.758 29.5252C130.749 29.5635 130.734 29.5998 130.712 29.6324C130.691 29.6605 130.663 29.6816 130.63 29.693C130.591 29.6997 130.551 29.6997 130.512 29.693C130.465 29.6844 130.417 29.6844 130.37 29.693C130.37 29.6952 130.37 29.6989 130.369 29.7037C130.365 29.7195 130.36 29.7472 130.37 29.7722C130.375 29.7829 130.381 29.7941 130.388 29.8056C130.402 29.8292 130.416 29.8543 130.416 29.8793C130.423 29.9178 130.423 29.9573 130.416 29.9958C130.415 30.0142 130.41 30.0322 130.401 30.0483C130.393 30.0645 130.381 30.0783 130.366 30.089C130.317 30.097 130.268 30.097 130.22 30.089C130.172 30.0864 130.123 30.0944 130.079 30.1123C130.066 30.1172 130.053 30.1238 130.041 30.1304C130.019 30.1425 129.997 30.1542 129.974 30.1542C129.953 30.1504 129.934 30.1422 129.916 30.1301C129.899 30.1181 129.884 30.1025 129.873 30.0844C129.85 30.0338 129.817 29.9881 129.778 29.9493C129.753 29.9319 129.72 29.9224 129.687 29.9131C129.658 29.905 129.63 29.897 129.609 29.884C129.59 29.8672 129.574 29.8466 129.563 29.8234C129.552 29.8001 129.546 29.7747 129.545 29.7489C129.552 29.6978 129.552 29.6462 129.545 29.5952C129.535 29.5664 129.519 29.5404 129.498 29.5193C129.476 29.4983 129.45 29.4828 129.422 29.474C129.391 29.4617 129.36 29.4611 129.329 29.4605C129.302 29.46 129.274 29.4595 129.244 29.4507C129.18 29.4321 129.18 29.3762 129.18 29.3296C129.174 29.305 129.161 29.2825 129.144 29.2645C129.126 29.2465 129.104 29.2336 129.08 29.2271C129.008 29.2237 128.937 29.2159 128.866 29.2038C128.831 29.19 128.802 29.1617 128.774 29.134C128.755 29.1149 128.736 29.096 128.715 29.0827C128.655 29.055 128.589 29.0437 128.524 29.05C128.456 29.0622 128.386 29.0622 128.318 29.05C128.291 29.0413 128.267 29.0236 128.245 29.0071C128.22 28.9882 128.197 28.9708 128.173 28.9708C128.146 28.9635 128.117 28.9631 128.09 28.9696C128.063 28.9761 128.038 28.9894 128.017 29.0081C127.958 29.0626 127.912 29.1314 127.885 29.2085C127.866 29.2849 127.866 29.365 127.885 29.4414C127.903 29.4812 127.932 29.5013 127.982 29.5367C127.997 29.5469 128.013 29.5583 128.031 29.5719C128.129 29.6441 128.219 29.7269 128.3 29.8188C128.348 29.8638 128.377 29.9252 128.382 29.9911C128.396 30.0525 128.396 30.1162 128.382 30.1776C128.354 30.2404 128.306 30.2914 128.245 30.3219C128.181 30.3587 128.114 30.39 128.045 30.4152C127.997 30.4357 127.955 30.4677 127.922 30.5083C127.894 30.5613 127.858 30.61 127.817 30.6528C127.746 30.7018 127.677 30.7546 127.612 30.8111C127.591 30.8367 127.575 30.8667 127.567 30.8988C127.558 30.931 127.556 30.9646 127.562 30.9975V31.2165V31.4821C127.562 31.5175 127.562 31.5549 127.563 31.5927C127.566 31.6693 127.568 31.7473 127.562 31.8129C127.552 31.9107 127.539 31.9852 127.502 32.083C127.475 32.1549 127.473 32.2368 127.47 32.3455C127.469 32.3847 127.468 32.4274 127.466 32.4744C127.463 32.5248 127.462 32.5797 127.46 32.6363C127.456 32.7787 127.452 32.9321 127.429 33.0521C127.397 33.2198 127.397 33.3317 127.397 33.4249V33.6671C127.385 33.7254 127.385 33.7858 127.397 33.8441C127.413 33.8837 127.448 33.9099 127.512 33.9569C127.523 33.9652 127.535 33.9741 127.548 33.9839C127.652 34.0596 127.76 34.1296 127.872 34.1936C127.952 34.2449 128.042 34.2782 128.136 34.2914H128.346C128.398 34.3052 128.449 34.3256 128.496 34.352C128.585 34.3932 128.676 34.4275 128.77 34.4545C128.839 34.4706 128.909 34.4831 128.98 34.4918C129.006 34.4934 129.031 34.5013 129.053 34.5151C129.075 34.5289 129.094 34.5481 129.107 34.571C129.128 34.604 129.145 34.649 129.163 34.6957C129.181 34.7411 129.199 34.7881 129.221 34.8272C129.262 34.8885 129.307 34.9476 129.354 35.0042C129.388 35.0674 129.41 35.1372 129.417 35.2093C129.426 35.2742 129.426 35.34 129.417 35.4049C129.409 35.4777 129.394 35.5495 129.372 35.6192C129.363 35.6409 129.35 35.6604 129.334 35.6764C129.317 35.6925 129.298 35.7048 129.276 35.7124L129.057 35.8149C128.981 35.8492 128.91 35.8948 128.847 35.95C128.77 36.0273 128.683 36.0931 128.587 36.1456C128.527 36.1777 128.454 36.2033 128.385 36.2272C128.325 36.2483 128.268 36.2682 128.227 36.2901C128.161 36.3252 128.107 36.3806 128.072 36.4485C128.024 36.5111 127.967 36.566 127.903 36.6115C127.856 36.6407 127.808 36.6672 127.758 36.6908C127.69 36.7255 127.632 36.7767 127.589 36.8399C127.571 36.9038 127.571 36.9717 127.589 37.0356C127.593 37.0567 127.599 37.0773 127.604 37.0975C127.615 37.1395 127.625 37.1794 127.625 37.2172C127.639 37.273 127.664 37.3253 127.698 37.371C127.732 37.419 127.773 37.4601 127.821 37.4922C127.872 37.5294 127.94 37.5713 128.008 37.6133L128.008 37.6133C128.072 37.6575 128.129 37.7109 128.177 37.7717C128.214 37.8261 128.246 37.8837 128.273 37.9441C128.303 38.003 128.338 38.0592 128.378 38.1118C128.429 38.1808 128.461 38.2631 128.469 38.3494V38.764C128.481 38.8957 128.481 39.0284 128.469 39.1601C128.433 39.2463 128.375 39.3205 128.3 39.3744C128.234 39.4262 128.175 39.4855 128.122 39.5514C128.101 39.5769 128.081 39.6031 128.061 39.6289C128.031 39.6691 128.001 39.7084 127.967 39.7425C127.905 39.8023 127.834 39.8524 127.758 39.8915L127.434 40.0733C127.315 40.1431 127.197 40.2223 127.083 40.3062C127.037 40.3399 126.993 40.3743 126.949 40.4083C126.884 40.4589 126.82 40.5085 126.754 40.5531C126.654 40.6226 126.549 40.6849 126.44 40.7395L126.235 40.8326C126.198 40.8559 126.235 40.8886 126.235 40.8886C126.257 40.9101 126.286 40.9231 126.317 40.9258H126.476C126.517 40.9236 126.558 40.9316 126.595 40.9491C126.656 40.97 126.715 40.9949 126.773 41.0237C126.848 41.0504 126.918 41.0916 126.978 41.1448C127.04 41.2119 127.094 41.2871 127.137 41.3685L127.247 41.5455C127.284 41.6078 127.316 41.6732 127.343 41.7411C127.367 41.8185 127.383 41.8981 127.393 41.9787V42.1651C127.396 42.2485 127.409 42.3313 127.429 42.4121C127.441 42.4468 127.459 42.4752 127.474 42.501C127.494 42.5339 127.511 42.5623 127.511 42.5937C127.521 42.6492 127.521 42.706 127.511 42.7615C127.507 42.8158 127.507 42.8702 127.511 42.9245C127.515 42.9476 127.524 42.9697 127.533 42.9909C127.543 43.0168 127.552 43.0412 127.552 43.0643C127.56 43.1028 127.56 43.1423 127.552 43.1808V43.3252C127.55 43.3733 127.55 43.4216 127.552 43.4697C127.559 43.5066 127.559 43.5446 127.552 43.5815C127.545 43.613 127.529 43.6419 127.507 43.6653C127.481 43.6923 127.448 43.71 127.412 43.7159C127.376 43.7218 127.339 43.7155 127.306 43.698C127.279 43.6819 127.259 43.6573 127.247 43.628C127.232 43.5897 127.216 43.5524 127.197 43.5162C127.169 43.4758 127.146 43.4319 127.128 43.3857C127.126 43.3672 127.129 43.3484 127.136 43.3312C127.143 43.3141 127.155 43.2992 127.169 43.2879C127.197 43.2654 127.223 43.2405 127.247 43.2134C127.254 43.1859 127.254 43.1571 127.247 43.1296C127.232 43.1114 127.231 43.0904 127.229 43.0688C127.229 43.0516 127.228 43.0342 127.22 43.0177C127.213 43.0042 127.205 42.9902 127.197 42.9756C127.183 42.9496 127.167 42.9218 127.156 42.892C127.152 42.8817 127.147 42.8713 127.143 42.8607C127.127 42.8231 127.11 42.7839 127.11 42.7475C127.09 42.6996 127.067 42.6529 127.042 42.6077C127.021 42.5657 127.005 42.5221 126.992 42.4772C126.987 42.4631 126.98 42.448 126.973 42.4323C126.956 42.3908 126.937 42.3455 126.937 42.3049C126.91 42.2522 126.878 42.2023 126.841 42.1558C126.805 42.0999 126.764 42.0393 126.718 41.974C126.672 41.9088 126.622 41.839 126.567 41.7737C126.532 41.7313 126.49 41.6869 126.451 41.6444C126.43 41.6215 126.409 41.5992 126.39 41.5781C126.298 41.4553 126.177 41.3589 126.039 41.2985L125.87 41.2007L125.76 41.1169L125.619 41.0284C125.571 40.9976 125.525 40.9632 125.482 40.9258C125.449 40.8936 125.42 40.8577 125.396 40.8186L125.327 40.6928C125.309 40.6609 125.28 40.6375 125.245 40.6276C125.209 40.6224 125.172 40.6224 125.136 40.6276C125.099 40.6247 125.063 40.6135 125.031 40.595C125.019 40.588 125.009 40.5786 125.001 40.5674C124.993 40.5561 124.988 40.5434 124.985 40.5298C124.981 40.5036 124.981 40.4768 124.985 40.4507V40.3994C124.978 40.3766 124.978 40.3523 124.985 40.3295C124.999 40.3052 125.014 40.2818 125.031 40.2596C125.035 40.2349 125.035 40.2097 125.031 40.1851C125.031 40.1778 125.032 40.1705 125.034 40.1636C125.035 40.1591 125.037 40.1547 125.039 40.1505C125.045 40.1399 125.053 40.1309 125.063 40.1244C125.096 40.1165 125.13 40.1165 125.163 40.1244H125.25C125.258 40.1226 125.266 40.1187 125.272 40.1129C125.278 40.1072 125.283 40.1 125.286 40.0919C125.305 40.0715 125.326 40.0542 125.35 40.0406C125.357 40.0356 125.366 40.0312 125.374 40.0269C125.397 40.0153 125.418 40.0039 125.418 39.9801C125.423 39.9399 125.423 39.8992 125.418 39.859C125.413 39.8172 125.413 39.7749 125.418 39.7332C125.45 39.6959 125.45 39.6633 125.45 39.6307C125.459 39.6003 125.459 39.5678 125.45 39.5374C125.444 39.5168 125.427 39.5012 125.408 39.4832C125.401 39.4769 125.394 39.4702 125.387 39.4629L125.318 39.3744C125.304 39.3523 125.287 39.332 125.268 39.3138C125.241 39.2962 125.212 39.2821 125.181 39.2719C125.146 39.2652 125.112 39.2525 125.081 39.2346C125.053 39.2197 125.028 39.199 125.008 39.174L124.949 39.1041C124.908 39.0855 124.908 39.0575 124.908 39.0575C124.901 39.0316 124.901 39.0042 124.908 38.9783C124.911 38.9521 124.922 38.9276 124.94 38.9085C124.953 38.9038 124.994 38.9365 124.994 38.9365L125.049 38.9783H125.117L125.181 38.955H125.268H125.3C125.282 38.939 125.262 38.9265 125.241 38.9178C125.205 38.9059 125.17 38.8918 125.136 38.8759C125.113 38.8549 125.094 38.8316 125.076 38.806C125.063 38.7856 125.046 38.7681 125.026 38.7547C125.011 38.7434 124.995 38.733 124.979 38.7237C124.969 38.7181 124.959 38.7129 124.949 38.7081L124.871 38.6616C124.842 38.6421 124.816 38.6185 124.794 38.5916C124.772 38.5679 124.754 38.5413 124.739 38.5124C124.733 38.4895 124.733 38.4655 124.739 38.4426C124.73 38.4186 124.73 38.392 124.739 38.368C124.751 38.3439 124.768 38.3231 124.789 38.3075C124.809 38.3019 124.829 38.3019 124.848 38.3075C124.858 38.3058 124.868 38.3077 124.876 38.3128C124.885 38.3179 124.891 38.326 124.894 38.3355C124.899 38.3663 124.899 38.3978 124.894 38.4286V38.5078C124.926 38.5264 124.926 38.5544 124.926 38.5544C124.951 38.5618 124.978 38.5618 125.003 38.5544C125.023 38.5598 125.043 38.5598 125.063 38.5544C125.065 38.5482 125.066 38.5417 125.066 38.5352C125.066 38.529 125.065 38.5229 125.063 38.5171C125.063 38.5063 125.064 38.4955 125.063 38.4846C125.063 38.4753 125.063 38.466 125.063 38.4566V38.382C125.064 38.3737 125.065 38.3653 125.065 38.3568C125.066 38.3466 125.065 38.3363 125.063 38.3261C125.04 38.3053 125.016 38.2865 124.99 38.2702L124.908 38.2143C124.885 38.1985 124.867 38.1756 124.858 38.149C124.853 38.1228 124.853 38.0961 124.858 38.0699C124.86 38.0451 124.86 38.0202 124.858 37.9954C124.85 37.975 124.836 37.9583 124.817 37.9487C124.793 37.9398 124.767 37.9398 124.744 37.9487C124.72 37.9691 124.701 37.9945 124.689 38.0232C124.675 38.0427 124.666 38.065 124.661 38.0885C124.655 38.116 124.655 38.1448 124.661 38.1723C124.666 38.1954 124.666 38.2191 124.661 38.2422H124.611C124.574 38.2239 124.539 38.2021 124.506 38.177C124.475 38.1537 124.438 38.1165 124.438 38.1165C124.424 38.0969 124.402 38.0836 124.379 38.0792H124.251C124.214 38.0828 124.177 38.0906 124.142 38.1025H124.082C124.061 38.0823 124.042 38.0587 124.028 38.0326V37.9627C124.026 37.9524 124.022 37.9426 124.017 37.9338C124.011 37.925 124.004 37.9174 123.996 37.9114C123.964 37.8879 123.929 37.8706 123.891 37.8602C123.859 37.8541 123.827 37.8541 123.795 37.8602C123.766 37.8557 123.737 37.8557 123.709 37.8602C123.677 37.864 123.645 37.864 123.613 37.8602C123.585 37.8556 123.553 37.8322 123.553 37.7949C123.538 37.749 123.519 37.7038 123.499 37.6598C123.476 37.6218 123.449 37.5873 123.417 37.5573C123.391 37.5376 123.371 37.5099 123.362 37.4782C123.357 37.4395 123.357 37.4004 123.362 37.3617V37.2545V37.1939C123.336 37.1909 123.31 37.1909 123.284 37.1939H123.193C123.157 37.1749 123.122 37.1532 123.088 37.1287L123.015 37.0914C123.009 37.0914 123.003 37.0903 122.998 37.0892C122.987 37.0872 122.979 37.0854 122.97 37.0914C122.963 37.0963 122.956 37.1049 122.946 37.1167C122.937 37.1276 122.926 37.1411 122.911 37.1567C122.864 37.1971 122.812 37.2301 122.756 37.2545C122.7 37.2789 122.642 37.2962 122.582 37.3058C122.538 37.3124 122.494 37.3124 122.45 37.3058C122.421 37.3107 122.392 37.3107 122.363 37.3058C122.336 37.3011 122.308 37.3011 122.281 37.3058C122.252 37.3134 122.224 37.3259 122.199 37.343C122.176 37.3584 122.158 37.3792 122.144 37.4037C122.131 37.4284 122.122 37.4551 122.117 37.4828C122.112 37.5027 122.112 37.5234 122.117 37.5433C122.13 37.5711 122.145 37.5977 122.163 37.6226L122.222 37.7158L122.281 37.8089Z" fill="white"/>
</svg>
